STARTFONT 2.1
COMMENT Exported by Fony v1.4.7
FONT 24X36TG
SIZE 36 96 96
FONTBOUNDINGBOX 24 35 0 -6
STARTPROPERTIES 6
COPYRIGHT "Tangar @ http://tangar.info for TomeNET @ http://tomenet.eu"
RESOLUTION_X 96
RESOLUTION_Y 96
FONT_ASCENT 30
FONT_DESCENT 6
DEFAULT_CHAR 31
ENDPROPERTIES
CHARS 256
STARTCHAR 000
ENCODING 0
SWIDTH 1728 0
DWIDTH 24 0
BBX 24 36 0 -6
BITMAP
C00001
C00001
200002
200002
100004
080008
080008
040010
040010
020020
020020
0100C0
00C100
00C100
002200
002200
001400
001400
000800
000C00
001400
002200
002200
002100
00C100
0100C0
010020
020020
040010
040010
040008
080008
100004
100002
200002
C00001
ENDCHAR
STARTCHAR 001
ENCODING 1
SWIDTH 1728 0
DWIDTH 24 0
BBX 22 1 1 -3
BITMAP
924924
ENDCHAR
STARTCHAR 002
ENCODING 2
SWIDTH 1728 0
DWIDTH 24 0
BBX 24 36 0 -6
BITMAP
FFFFFF
FFFFFF
FFFFFF
FFFFFF
FFFFFF
FFFFFF
FFFFFF
FFFFFF
FFFFFF
FFFFFF
FFFFFF
FFFFFF
FFFFFF
FFFFFF
FFFFFF
FFFFFF
FFFFFF
FFFFFF
FFFFFF
FFFFFF
FFFFFF
FFFFFF
FFFFFF
FFFFFF
FFFFFF
FFFFFF
FFFFFF
FFFFFF
FFFFFF
FFFFFF
FFFFFF
FFFFFF
FFFFFF
FFFFFF
FFFFFF
FFFFFF
ENDCHAR
STARTCHAR 003
ENCODING 3
SWIDTH 1728 0
DWIDTH 24 0
BBX 23 1 1 -2
BITMAP
DB6DB6
ENDCHAR
STARTCHAR 004
ENCODING 4
SWIDTH 1728 0
DWIDTH 24 0
BBX 5 6 10 -1
BITMAP
70
C8
C8
F8
F8
70
ENDCHAR
STARTCHAR 005
ENCODING 5
SWIDTH 1728 0
DWIDTH 24 0
BBX 23 4 0 -1
BITMAP
924924
000000
000000
222222
ENDCHAR
STARTCHAR 006
ENCODING 6
SWIDTH 1728 0
DWIDTH 24 0
BBX 23 6 0 -1
BITMAP
004100
00A280
924924
001400
000800
220022
ENDCHAR
STARTCHAR 007
ENCODING 7
SWIDTH 1728 0
DWIDTH 24 0
BBX 23 1 0 -2
BITMAP
F7BDEE
ENDCHAR
STARTCHAR 008
ENCODING 8
SWIDTH 1728 0
DWIDTH 24 0
BBX 24 4 0 10
BITMAP
421084
421084
A5294A
18C631
ENDCHAR
STARTCHAR 009
ENCODING 9
SWIDTH 1728 0
DWIDTH 24 0
BBX 7 5 9 7
BITMAP
82
C6
EE
7C
38
ENDCHAR
STARTCHAR 010
ENCODING 10
SWIDTH 1728 0
DWIDTH 24 0
BBX 24 33 0 -6
BITMAP
FFE1FF
FFF3FF
FFF3FF
FFF3FF
FFE1FF
FFC1FF
000000
000000
F81FFF
FCFFFF
FCFFFF
FCFFFF
FCFFFF
FCFFFF
FCFFFF
F83FFF
000000
000000
FFE1FF
FFE3FF
FFF3FF
FFF3FF
FFF1FF
FFE1FF
000000
000000
000000
F83FFF
FCFFFF
FCFFFF
FCFFFF
FCFFFF
F83FFF
ENDCHAR
STARTCHAR 011
ENCODING 11
SWIDTH 1728 0
DWIDTH 24 0
BBX 24 33 0 -6
BITMAP
FFF3FF
FFF3FF
FFF3FF
FFF3FF
FFF3FF
FFF3FF
000000
000000
FCFFFF
FCFFFF
FCFFFF
FCFFFF
FCFFFF
FCFFFF
FCFFFF
FCFFFF
000000
000000
FFF3FF
FFF3FF
FFF3FF
FFF3FF
FFF3FF
FFF3FF
000000
000000
000000
FCFFFF
FCFFFF
FCFFFF
FCFFFF
FCFFFF
FCFFFF
ENDCHAR
STARTCHAR 012
ENCODING 12
SWIDTH 1728 0
DWIDTH 24 0
BBX 24 33 0 -6
BITMAP
FFF3FF
FFF3FF
FFF33F
FFF33F
FFF3FF
FFF3FF
000000
000000
FCFFFF
FCFFFF
E4FFFF
E4FFFF
E4FFFF
FCFFFF
FCFFFF
FCFFFF
000000
000000
FFF3FF
FFF3FF
FFF33F
FFF33F
FFF3FF
FFF3FF
000000
000000
000000
FCFFFF
E4FFFF
E4FFFF
FCFFFF
FCFFFF
FCFFFF
ENDCHAR
STARTCHAR 013
ENCODING 13
SWIDTH 1728 0
DWIDTH 24 0
BBX 24 36 0 -6
BITMAP
FFFFFF
FFFFFF
3F3F3F
3F3F3F
1E001E
1EFF1E
C1FFC0
E300E1
E300E1
F40037
F40037
3700F7
3700F7
17FFF6
17FFF6
17FFF6
C3FFC0
E4FF11
F4FF37
F700F7
3700F7
33FFE7
33FFE7
1BFFCE
19FFDE
C0FF00
E03E01
FE003F
FFFFFF
FFFFFF
3F3F3F
3F3F3F
1E1E1E
1E1E1E
C0C0C0
E1E1E1
ENDCHAR
STARTCHAR 014
ENCODING 14
SWIDTH 1728 0
DWIDTH 24 0
BBX 24 36 0 -6
BITMAP
000100
000380
0003C0
0007C0
0007E0
040FE0
060FF0
0E1EF0
0E1EF0
0F19F8
0F39F8
1B3FF8
1BFFFC
17E7FC
37C7FC
37C7FC
7F3BFE
7F3FF2
FE3CF2
FCFEFF
F8E63F
F9E73F
F9E73F
F1FB19
E3FBCC
C3FBC0
03FFE0
07FFE0
07FFF0
07FFF0
0E3FF0
1FFFF8
1FFFF8
3FFFFC
FFFFFE
FFFFFF
ENDCHAR
STARTCHAR 015
ENCODING 15
SWIDTH 1728 0
DWIDTH 24 0
BBX 23 33 0 -6
BITMAP
00E000
01F800
033C00
03FE00
07E700
07E700
0FE780
0FFF80
1FFF80
1FFFC0
3FFFC0
3FF9C0
3FF0E0
7FEF20
7F1FC0
E73FE0
E4F3F0
FCF3F0
FDFFF8
FDFFF8
1BDFF8
13DFFC
07FFFC
07FFFC
0FFFFC
0FFFFE
0FFFFE
1FFFFE
1FFFCE
3FFFFE
3FFFFE
3FFFFE
04ECCC
ENDCHAR
STARTCHAR 016
ENCODING 16
SWIDTH 1728 0
DWIDTH 24 0
BBX 24 34 0 -6
BITMAP
FFFFFF
FFFFFF
FFFFFF
E21D07
FFFFFF
E87407
FFFFFF
E1D00F
FFFFFF
E7403F
FFFFFF
FD00EF
FFFFFF
F403A7
FFFFFF
F00E87
FFFFFF
E03A07
FFFFFF
E0E807
FFFFFF
E3A00F
FFFFFF
EE8027
FFFFFF
FA0087
FFFFFF
E80207
FFFFFF
E00807
FFFFFF
FFFFFF
FFFFFF
FFFFFF
ENDCHAR
STARTCHAR 017
ENCODING 17
SWIDTH 1728 0
DWIDTH 24 0
BBX 24 34 0 -6
BITMAP
FFFFFF
FFFFFF
FFFFFF
E21D07
E43A07
E87407
F0E807
E1D00F
E3A01F
E7403F
EE8077
FD00EF
FA01D7
F403A7
E80747
F00E87
E01D07
E03A07
E07407
E0E807
E1D007
E3A00F
E74017
EE8027
FD0047
FA0087
F40107
E80207
F00407
E00807
E01007
FFFFFF
FFFFFF
FFFFFF
ENDCHAR
STARTCHAR 018
ENCODING 18
SWIDTH 1728 0
DWIDTH 24 0
BBX 24 34 0 -6
BITMAP
FFFFFF
FFFFFF
FFFFFF
E2C007
E4C007
E8C007
F0C007
E1C007
E3C007
E7C007
EEC007
FDC007
FAC007
F4C007
E8C007
F0C007
E0C007
E0C007
E0C007
E0C007
E1C007
E3C007
E7C007
EEC007
FDC007
FAC007
F4C007
E8C007
F0C007
E0C007
E0C007
FFFFFF
FFFFFF
FFFFFF
ENDCHAR
STARTCHAR 019
ENCODING 19
SWIDTH 1728 0
DWIDTH 24 0
BBX 24 34 0 -6
BITMAP
FFFFFF
FFFFFF
FFFFFF
E1188F
FFFFFF
E4623F
FFFFFF
F188E7
FFFFFF
E6238F
FFFFFF
F88E27
FFFFFF
FFFFFF
FFFFFF
E00007
FFFFFF
E01887
FFFFFF
E13B87
FFFFFF
E3B987
FFFFFF
E19F87
FFFFFF
E1FC07
FFFFFF
E07E07
FFFFFF
E07E07
FFFFFF
FFFFFF
FFFFFF
FFFFFF
ENDCHAR
STARTCHAR 020
ENCODING 20
SWIDTH 1728 0
DWIDTH 24 0
BBX 24 34 0 -6
BITMAP
FFFFFF
FFFFFF
FFFFFF
E1188F
E2311F
E4623F
E8C477
F188E7
E311C7
E6238F
EC4717
F88E27
F11C47
FFFFFF
FFFFFF
E00007
E01007
E01887
E01D87
E13B87
E19DC7
E3B987
E1DFC7
E19F87
E3F907
E1FC07
E09807
E07E07
E07E07
E07E07
E03C07
FFFFFF
FFFFFF
FFFFFF
ENDCHAR
STARTCHAR 021
ENCODING 21
SWIDTH 1728 0
DWIDTH 24 0
BBX 24 34 0 -6
BITMAP
FFFFFF
FFFFFF
FFFFFF
E1C007
E2C007
E4C007
E8C007
F1C007
E3C007
E6C007
ECC007
F8C007
F1C007
FFFFFF
FFFFFF
E00007
E01007
E01887
E01D87
E13B87
E19DC7
E3B987
E1DFC7
E19F87
E3F907
E1FC07
E09807
E07E07
E07E07
E07E07
E03C07
FFFFFF
FFFFFF
FFFFFF
ENDCHAR
STARTCHAR 022
ENCODING 22
SWIDTH 1728 0
DWIDTH 24 0
BBX 24 36 0 -6
BITMAP
C00001
C00001
200002
200002
100004
080008
080008
040010
040010
020020
020020
0100C0
00C100
00C100
002200
002200
001400
001400
000800
000C00
001400
002200
002200
002100
00C100
0100C0
010020
020020
040010
040010
040008
080008
100004
100002
200002
C00001
ENDCHAR
STARTCHAR 023
ENCODING 23
SWIDTH 1728 0
DWIDTH 24 0
BBX 24 36 0 -6
BITMAP
C00001
C00001
200002
200002
100004
080008
080008
040010
040010
020020
020020
0100C0
00C100
00C100
002200
002200
001400
001400
000800
000C00
001400
002200
002200
002100
00C100
0100C0
010020
020020
040010
040010
040008
080008
100004
100002
200002
C00001
ENDCHAR
STARTCHAR 024
ENCODING 24
SWIDTH 1728 0
DWIDTH 24 0
BBX 24 36 0 -6
BITMAP
C00001
C00001
200002
200002
100004
080008
080008
040010
040010
020020
020020
0100C0
00C100
00C100
002200
002200
001400
001400
000800
000C00
001400
002200
002200
002100
00C100
0100C0
010020
020020
040010
040010
040008
080008
100004
100002
200002
C00001
ENDCHAR
STARTCHAR 025
ENCODING 25
SWIDTH 1728 0
DWIDTH 24 0
BBX 24 36 0 -6
BITMAP
C00001
C00001
200002
200002
100004
080008
080008
040010
040010
020020
020020
0100C0
00C100
00C100
002200
002200
001400
001400
000800
000C00
001400
002200
002200
002100
00C100
0100C0
010020
020020
040010
040010
040008
080008
100004
100002
200002
C00001
ENDCHAR
STARTCHAR 026
ENCODING 26
SWIDTH 1728 0
DWIDTH 24 0
BBX 24 36 0 -6
BITMAP
C00001
C00001
200002
200002
100004
080008
080008
040010
040010
020020
020020
0100C0
00C100
00C100
002200
002200
001400
001400
000800
000C00
001400
002200
002200
002100
00C100
0100C0
010020
020020
040010
040010
040008
080008
100004
100002
200002
C00001
ENDCHAR
STARTCHAR 027
ENCODING 27
SWIDTH 1728 0
DWIDTH 24 0
BBX 24 36 0 -6
BITMAP
C00001
C00001
200002
200002
100004
080008
080008
040010
040010
020020
020020
0100C0
00C100
00C100
002200
002200
001400
001400
000800
000C00
001400
002200
002200
002100
00C100
0100C0
010020
020020
040010
040010
040008
080008
100004
100002
200002
C00001
ENDCHAR
STARTCHAR 028
ENCODING 28
SWIDTH 1728 0
DWIDTH 24 0
BBX 24 36 0 -6
BITMAP
C00001
C00001
200002
200002
100004
080008
080008
040010
040010
020020
020020
0100C0
00C100
00C100
002200
002200
001400
001400
000800
000C00
001400
002200
002200
002100
00C100
0100C0
010020
020020
040010
040010
040008
080008
100004
100002
200002
C00001
ENDCHAR
STARTCHAR 029
ENCODING 29
SWIDTH 1728 0
DWIDTH 24 0
BBX 24 36 0 -6
BITMAP
C00001
C00001
200002
200002
100004
080008
080008
040010
040010
020020
020020
0100C0
00C100
00C100
002200
002200
001400
001400
000800
000C00
001400
002200
002200
002100
00C100
0100C0
010020
020020
040010
040010
040008
080008
100004
100002
200002
C00001
ENDCHAR
STARTCHAR 030
ENCODING 30
SWIDTH 1728 0
DWIDTH 24 0
BBX 24 36 0 -6
BITMAP
C00001
C00001
200002
200002
100004
080008
080008
040010
040010
020020
020020
0100C0
00C100
00C100
002200
002200
001400
001400
000800
000C00
001400
002200
002200
002100
00C100
0100C0
010020
020020
040010
040010
040008
080008
100004
100002
200002
C00001
ENDCHAR
STARTCHAR 031
ENCODING 31
SWIDTH 1728 0
DWIDTH 24 0
BBX 24 36 0 -6
BITMAP
C00001
C00001
200002
200002
100004
080008
080008
040010
040010
020020
020020
0100C0
00C100
00C100
002200
002200
001400
001400
000800
000C00
001400
002200
002200
002100
00C100
0100C0
010020
020020
040010
040010
040008
080008
100004
100002
200002
C00001
ENDCHAR
STARTCHAR 032
ENCODING 32
SWIDTH 1728 0
DWIDTH 24 0
BBX 0 0 0 0
BITMAP
ENDCHAR
STARTCHAR 033
ENCODING 33
SWIDTH 1728 0
DWIDTH 24 0
BBX 8 28 8 -2
BITMAP
1C
3E
3E
7F
7F
7F
F3
F3
F3
FF
FF
FF
FF
FF
FE
7E
7E
7C
3C
3C
18
00
00
18
3C
3C
3C
18
ENDCHAR
STARTCHAR 034
ENCODING 34
SWIDTH 1728 0
DWIDTH 24 0
BBX 12 7 7 16
BITMAP
F9F0
F9F0
F9F0
F9F0
F9F0
F0F0
E070
ENDCHAR
STARTCHAR 035
ENCODING 35
SWIDTH 1728 0
DWIDTH 24 0
BBX 15 15 5 4
BITMAP
3C78
3C78
FFFE
FFFE
FFFE
FFFE
3C78
3C78
3C78
FFFE
FFFE
FFFE
FFFE
3C78
3C78
ENDCHAR
STARTCHAR 036
ENCODING 36
SWIDTH 1728 0
DWIDTH 24 0
BBX 17 32 4 -5
BITMAP
003000
007000
007000
007000
03F800
0FFE00
1FFF00
3CE780
78E380
70E180
70E180
78E000
7CE000
3FE000
1FF000
07FC00
01FE00
01DF00
01CF80
01C780
01C380
C1C380
E1C780
F1CF80
79DF00
3FFE00
1FF800
07E000
038000
038000
038000
030000
ENDCHAR
STARTCHAR 037
ENCODING 37
SWIDTH 1728 0
DWIDTH 24 0
BBX 20 25 3 0
BITMAP
000100
000300
000700
380700
7C0F00
C60E00
C61E00
C61C00
C63800
7E3800
7C3800
387000
007000
00E1C0
00E3E0
01C630
01C630
03C630
038630
078630
0F03E0
0E01C0
1E0000
3C0000
380000
ENDCHAR
STARTCHAR 038
ENCODING 38
SWIDTH 1728 0
DWIDTH 24 0
BBX 18 23 4 0
BITMAP
03F000
07F800
0FFC00
1C0E00
1C0E00
1C1C00
1C3C00
0E7800
0E7000
0FE000
0FC000
1FC000
3CE0C0
7070C0
E079C0
E03DC0
E03F80
E01F00
F00F80
7FFFC0
3FFDC0
1FF0C0
0FC0C0
ENDCHAR
STARTCHAR 039
ENCODING 39
SWIDTH 1728 0
DWIDTH 24 0
BBX 7 12 8 11
BITMAP
1C
3E
3E
3E
3E
1E
0C
0C
1C
18
30
E0
ENDCHAR
STARTCHAR 040
ENCODING 40
SWIDTH 1728 0
DWIDTH 24 0
BBX 8 29 10 -3
BITMAP
03
07
0E
1C
1C
18
38
30
70
F0
E0
E0
E0
E0
E0
E0
E0
E0
E0
F0
70
30
38
18
1C
1C
0C
07
03
ENDCHAR
STARTCHAR 041
ENCODING 41
SWIDTH 1728 0
DWIDTH 24 0
BBX 8 29 7 -3
BITMAP
80
E0
70
78
38
18
1C
0C
0E
0E
07
07
07
07
07
07
07
07
07
0E
0E
0C
1C
18
38
70
70
E0
80
ENDCHAR
STARTCHAR 042
ENCODING 42
SWIDTH 1728 0
DWIDTH 24 0
BBX 14 16 5 3
BITMAP
0300
6318
7338
7B78
3FF0
1FE0
0FC0
FFFC
FFFC
0FC0
1FE0
3FF0
7B78
7338
6318
0300
ENDCHAR
STARTCHAR 043
ENCODING 43
SWIDTH 1728 0
DWIDTH 24 0
BBX 19 19 3 2
BITMAP
01F000
01F000
01F000
01F000
01F000
01F000
01F000
FFFFE0
FFFFE0
FFFFE0
FFFFE0
FFFFE0
01F000
01F000
01F000
01F000
01F000
01F000
01F000
ENDCHAR
STARTCHAR 044
ENCODING 44
SWIDTH 1728 0
DWIDTH 24 0
BBX 10 11 6 -5
BITMAP
0700
0F80
1FC0
1FC0
1FC0
1FC0
0F80
0700
0E00
3C00
F000
ENDCHAR
STARTCHAR 045
ENCODING 45
SWIDTH 1728 0
DWIDTH 24 0
BBX 18 4 4 9
BITMAP
FFFFC0
FFFFC0
FFFFC0
FFFFC0
ENDCHAR
STARTCHAR 046
ENCODING 46
SWIDTH 1728 0
DWIDTH 24 0
BBX 5 5 10 9
BITMAP
70
F8
F8
F8
70
ENDCHAR
STARTCHAR 047
ENCODING 47
SWIDTH 1728 0
DWIDTH 24 0
BBX 14 25 5 0
BITMAP
001C
001C
003C
003C
0078
0078
0070
00E0
00E0
01C0
01C0
01C0
0380
0780
0700
0F00
1E00
1E00
3C00
3C00
7800
7800
F000
E000
E000
ENDCHAR
STARTCHAR 048
ENCODING 48
SWIDTH 1728 0
DWIDTH 24 0
BBX 15 24 5 0
BITMAP
00E0
03F8
03F8
07FC
0FFC
1F3C
1E1E
3C1E
3C1E
7C1E
781E
781E
703E
F03C
E03C
E078
E078
E0F0
E0E0
F1E0
7FC0
7F80
3F00
1E00
ENDCHAR
STARTCHAR 049
ENCODING 49
SWIDTH 1728 0
DWIDTH 24 0
BBX 11 24 7 0
BITMAP
0180
0380
0380
0780
0F80
1F80
7F80
FF80
0700
0700
0700
0700
0700
0F00
0F00
0F00
0F00
0F00
0F00
0F00
1F00
7F80
FFE0
FFE0
ENDCHAR
STARTCHAR 050
ENCODING 50
SWIDTH 1728 0
DWIDTH 24 0
BBX 16 25 4 0
BITMAP
00FC
03FE
07FF
0FFF
1F8F
3E0F
3C0F
380F
300F
000F
001F
001E
003E
007C
00F8
01F0
03E0
07C0
0F80
1F00
3E0F
FFFF
FFFF
FFFF
FFFF
ENDCHAR
STARTCHAR 051
ENCODING 51
SWIDTH 1728 0
DWIDTH 24 0
BBX 15 24 4 0
BITMAP
01F0
03F8
07FC
0FFC
1E3E
1C3E
101E
001E
003E
003C
0078
01F0
03F8
007C
001E
000E
000E
800E
E01E
F07E
7FFC
3FF8
1FE0
0F00
ENDCHAR
STARTCHAR 052
ENCODING 52
SWIDTH 1728 0
DWIDTH 24 0
BBX 13 24 6 0
BITMAP
3800
3800
3800
3838
7838
7878
7078
F070
F0F0
F0F0
FFF0
FFE0
FFE0
00E0
00C0
01C0
01C0
01C0
01C0
01C0
0380
0380
0380
0380
ENDCHAR
STARTCHAR 053
ENCODING 53
SWIDTH 1728 0
DWIDTH 24 0
BBX 18 23 3 0
BITMAP
01FF80
01FF80
03FFC0
038000
078000
070000
0F0000
0F8000
0FC000
1FF000
1FF800
003C00
001E00
000E00
000E00
000E00
800E00
E01C00
783800
3FF800
1FF000
0FE000
078000
ENDCHAR
STARTCHAR 054
ENCODING 54
SWIDTH 1728 0
DWIDTH 24 0
BBX 14 23 5 0
BITMAP
03E0
0FF0
1FF8
3C3C
381C
7004
6000
E000
E000
E3C0
E7E0
EFF0
FC78
F83C
F01C
E01C
E01C
E03C
F878
7FF0
3FE0
1F80
0700
ENDCHAR
STARTCHAR 055
ENCODING 55
SWIDTH 1728 0
DWIDTH 24 0
BBX 17 23 4 0
BITMAP
3FFF80
3FFF80
7FFF00
E01F00
E01E00
C01E00
003C00
003C00
003800
007000
00F000
00E000
01E000
01C000
03C000
03C000
078000
0F8000
0F8000
1F0000
1F0000
1F0000
1F0000
ENDCHAR
STARTCHAR 056
ENCODING 56
SWIDTH 1728 0
DWIDTH 24 0
BBX 14 24 5 0
BITMAP
03E0
07F8
0FF8
1FFC
3C3C
3C3C
3C3C
3C3C
3E78
3FF0
1FE0
1FC0
3FC0
7FE0
70F0
E078
E078
E078
E078
F0F0
7FE0
7FC0
3F00
1E00
ENDCHAR
STARTCHAR 057
ENCODING 57
SWIDTH 1728 0
DWIDTH 24 0
BBX 15 23 5 0
BITMAP
01F0
07F8
0FFC
1FFC
1E3E
3E1E
3C1E
3C1E
3C1E
3E3E
3FFC
1FFC
07FC
0078
0078
0078
00F0
00E0
81E0
C3C0
FF80
7E00
7E00
ENDCHAR
STARTCHAR 058
ENCODING 58
SWIDTH 1728 0
DWIDTH 24 0
BBX 6 17 10 -2
BITMAP
30
78
FC
FC
FC
78
30
00
00
00
30
78
FC
FC
FC
78
30
ENDCHAR
STARTCHAR 059
ENCODING 59
SWIDTH 1728 0
DWIDTH 24 0
BBX 8 19 8 -5
BITMAP
0C
1E
3F
3F
1E
0C
00
00
00
0C
1E
3F
3F
3F
1E
0C
1C
38
E0
ENDCHAR
STARTCHAR 060
ENCODING 60
SWIDTH 1728 0
DWIDTH 24 0
BBX 22 31 1 -4
BITMAP
00001C
00001C
00001C
00079C
00079C
00079C
00079C
00E79C
00E79C
00E79C
18E79C
18E79C
18E79C
98E79C
98E79C
98E79C
98E79C
98E79C
18E79C
18E79C
18E79C
00E79C
00E79C
00E79C
00079C
00079C
00079C
00079C
00001C
00001C
00001C
ENDCHAR
STARTCHAR 061
ENCODING 61
SWIDTH 1728 0
DWIDTH 24 0
BBX 18 11 4 5
BITMAP
FFFFC0
FFFFC0
FFFFC0
FFFFC0
000000
000000
000000
000000
FFFFC0
FFFFC0
FFFFC0
ENDCHAR
STARTCHAR 062
ENCODING 62
SWIDTH 1728 0
DWIDTH 24 0
BBX 22 31 1 -4
BITMAP
E00000
E00000
E00000
E78000
E78000
E78000
E78000
E79C00
E79C00
E79C00
E79C60
E79C60
E79C60
E79C64
E79C64
E79C64
E79C64
E79C64
E79C60
E79C60
E79C60
E79C00
E79C00
E79C00
E78000
E78000
E78000
E78000
E00000
E00000
E00000
ENDCHAR
STARTCHAR 063
ENCODING 63
SWIDTH 1728 0
DWIDTH 24 0
BBX 15 27 5 -2
BITMAP
07E0
1FF8
3FFC
3FFC
7C3E
F81E
F01E
E00E
000E
000E
001C
003C
0078
00F0
01E0
03C0
0780
0780
0700
0700
0000
0000
0700
0F80
0F80
0F80
0700
ENDCHAR
STARTCHAR 064
ENCODING 64
SWIDTH 1728 0
DWIDTH 24 0
BBX 18 32 4 -5
BITMAP
01E000
03F000
03F000
03F000
03F000
03F000
01E000
00C000
03F000
1FFE00
3FFF00
7FFF80
7FFF80
7FFF80
F3F3C0
E3F1C0
E3F1C0
C7F8C0
C7F8C0
CFFCC0
0FFC00
0FFC00
0F3C00
1F3E00
1F3E00
1E1E00
1E1E00
1E1E00
1E1E00
1E1E00
3E1F00
7C0F80
ENDCHAR
STARTCHAR 065
ENCODING 65
SWIDTH 1728 0
DWIDTH 24 0
BBX 22 27 2 -1
BITMAP
07E000
1FF000
3FF800
3FFC00
3FFE00
30FF00
20FF00
01EF80
03C780
03C7C0
0783C0
0783C0
0783C0
0F03E0
0F03E0
0F03E0
1FFFE0
1FFFF0
1FFFF0
1FFFF0
3C00F0
3C00F0
3C00F0
7C00F8
7C00F8
7C00F8
FF03FC
ENDCHAR
STARTCHAR 066
ENCODING 66
SWIDTH 1728 0
DWIDTH 24 0
BBX 18 24 3 0
BITMAP
FFE000
7FF800
7FFC00
3FFE00
3E1F00
3E0F00
3E0700
3E0700
3E0F00
3E1E00
3FFC00
3FFF00
3FFF80
3E03C0
3E01C0
3E00C0
3E00C0
3E01C0
3E0780
3FFF80
3FFF00
3FFE00
3FF800
3FE000
ENDCHAR
STARTCHAR 067
ENCODING 67
SWIDTH 1728 0
DWIDTH 24 0
BBX 19 25 3 0
BITMAP
01FF00
07FF80
0FFFC0
1FFFC0
3FFFE0
7F81E0
7E01E0
7801E0
F801C0
F00780
F00700
F00000
F00000
F00000
F00000
F00000
F00000
F00000
F80040
7C00C0
7F07C0
3FFF80
1FFF00
07FC00
03F000
ENDCHAR
STARTCHAR 068
ENCODING 68
SWIDTH 1728 0
DWIDTH 24 0
BBX 21 26 2 -1
BITMAP
7FFC00
3FFF80
3FFFC0
3FFFC0
3FFFE0
3803F0
3800F0
3800F8
380078
380078
380078
380078
380078
380078
380078
380078
380078
380078
380078
3800F8
3803F0
3FFFF0
3FFFE0
7FFFC0
7FFFC0
FFFF00
ENDCHAR
STARTCHAR 069
ENCODING 69
SWIDTH 1728 0
DWIDTH 24 0
BBX 17 28 3 -2
BITMAP
000080
FFFF80
7FFF80
3FFF80
3FFF80
3FFF80
380000
380000
380000
380000
380000
380000
3FE000
3FE000
3FE000
3FE000
380000
380000
380000
380000
380000
380000
3FFF80
3FFF80
3FFF80
3FFF80
3FFF80
000080
ENDCHAR
STARTCHAR 070
ENCODING 70
SWIDTH 1728 0
DWIDTH 24 0
BBX 17 26 5 -1
BITMAP
FFFF80
FFFF80
FFFF80
FFFF80
FFFF80
F80180
F80000
F80000
F80000
F80000
F80000
FF8000
FFC000
FFE000
FFF000
F80000
F80000
F80000
F80000
F80000
F80000
F80000
F80000
F80000
F80000
F80000
ENDCHAR
STARTCHAR 071
ENCODING 71
SWIDTH 1728 0
DWIDTH 24 0
BBX 20 27 3 -1
BITMAP
01FE00
0FFF80
1FFFC0
3FFFE0
3FFFE0
3F81E0
7E00F0
7E00F0
780000
780000
F00000
F00000
F00000
F00000
F007C0
F01FE0
F03FF0
F038F0
F038F0
780070
7E0070
7F80E0
3FFFE0
3FFFE0
0FFFC0
0FFFC0
01FF00
ENDCHAR
STARTCHAR 072
ENCODING 72
SWIDTH 1728 0
DWIDTH 24 0
BBX 19 26 3 -1
BITMAP
F807E0
7807C0
7807C0
7807C0
7807C0
7807C0
7807C0
7807C0
7807C0
7807C0
7807C0
7FFFC0
7FFFC0
7FFFC0
7807C0
7807C0
7807C0
7807C0
7807C0
7807C0
7807C0
7807C0
7807C0
7807C0
7807C0
FE0FE0
ENDCHAR
STARTCHAR 073
ENCODING 73
SWIDTH 1728 0
DWIDTH 24 0
BBX 11 25 7 0
BITMAP
FFE0
FFE0
FFE0
FFE0
0E00
0E00
0E00
0E00
0E00
0E00
0E00
0E00
0E00
0E00
0E00
0E00
0E00
0E00
0E00
0E00
0E00
FFE0
FFE0
FFE0
FFE0
ENDCHAR
STARTCHAR 074
ENCODING 74
SWIDTH 1728 0
DWIDTH 24 0
BBX 19 27 3 -1
BITMAP
000FE0
000FE0
000FE0
0007C0
0007C0
0007C0
0007C0
0007C0
0007C0
0007C0
0007C0
0007C0
0007C0
0007C0
0007C0
0007C0
F807C0
F807C0
F807C0
7007C0
7007C0
780FC0
3E1FC0
3FFF80
1FFF00
1FFF00
07FE00
ENDCHAR
STARTCHAR 075
ENCODING 75
SWIDTH 1728 0
DWIDTH 24 0
BBX 21 27 2 -1
BITMAP
0003C0
3F07E0
7F0FF0
FF0F30
FF0E30
3C1E10
381C00
383C00
383800
387000
38F000
38F000
3BE000
3FE000
3FE000
3FE000
3FF000
38F008
38F808
387818
383C18
381F38
381FF0
3C0FF0
7C0FF0
7C07F0
FC03E0
ENDCHAR
STARTCHAR 076
ENCODING 76
SWIDTH 1728 0
DWIDTH 24 0
BBX 17 25 3 0
BITMAP
FE0000
7E0000
3E0000
3E0000
3E0000
3E0000
3E0000
3E0000
3E0000
3E0000
3E0000
3E0000
3E0000
3E0000
3E0000
3E0000
3E0000
3E0000
3E0000
3E0180
3E0180
3FFF80
3FFF80
3FFF80
3FFF80
ENDCHAR
STARTCHAR 077
ENCODING 77
SWIDTH 1728 0
DWIDTH 24 0
BBX 22 26 2 -1
BITMAP
180070
1C0070
1C00F0
1C00F0
1E01F0
1F01F0
1F03F0
3F83F0
3F83B8
3FC7B8
3FC7B8
3BC7B8
38EF38
38EF38
386F38
787C38
783C38
783C38
783C38
781838
781838
78003C
FC007C
FC007C
FC007C
FF00FC
ENDCHAR
STARTCHAR 078
ENCODING 78
SWIDTH 1728 0
DWIDTH 24 0
BBX 20 27 3 -2
BITMAP
000030
000060
7001E0
7001E0
7801E0
7C01E0
7E01E0
7F01E0
7781E0
7381E0
71C1E0
71C1E0
70E1E0
70E1E0
7071C0
7039C0
703FC0
703FC0
701FC0
700FC0
700FC0
7007C0
7007C0
7007C0
7007C0
600000
C00000
ENDCHAR
STARTCHAR 079
ENCODING 79
SWIDTH 1728 0
DWIDTH 24 0
BBX 20 23 3 0
BITMAP
03F800
07FC00
1FFF00
3FFF80
7FFFC0
7F01E0
FE00E0
F80070
F80070
F8C070
F0C070
F00070
F00070
F00070
F00070
F00070
7000E0
7801E0
3E07C0
1FFF80
0FFF00
01F800
01F800
ENDCHAR
STARTCHAR 080
ENCODING 80
SWIDTH 1728 0
DWIDTH 24 0
BBX 18 26 3 -1
BITMAP
FFF800
7FFE00
3FFF00
3FFF00
300780
3001C0
3000C0
3000C0
3001C0
3003C0
3007C0
3FFF80
3FFF00
3FFE00
300000
300000
300000
300000
300000
300000
300000
300000
300000
700000
700000
F00000
ENDCHAR
STARTCHAR 081
ENCODING 81
SWIDTH 1728 0
DWIDTH 24 0
BBX 22 29 2 -3
BITMAP
0FF800
3FFC00
7FFF00
7FFF80
7FFF80
7FFFC0
FC0FC0
F007E0
E003E0
E000E0
E00070
E00070
C00030
C00030
C00030
C00030
C03830
C03830
C03830
E03830
601C60
701FE0
3C07C0
1FFFC0
0FFFC0
03FFE0
0000F0
000038
00000C
ENDCHAR
STARTCHAR 082
ENCODING 82
SWIDTH 1728 0
DWIDTH 24 0
BBX 20 26 3 0
BITMAP
FFF000
7FF800
7FFE00
7FFF00
7FFF00
701F00
700F80
700780
700780
700F80
701F00
701F00
7FFE00
7FF800
7FF000
70F800
707800
703C00
703E00
703E00
781F30
7E1FF0
7E0FF0
7E07F0
FE01E0
FE01E0
ENDCHAR
STARTCHAR 083
ENCODING 83
SWIDTH 1728 0
DWIDTH 24 0
BBX 20 25 3 0
BITMAP
007E00
01FF80
07FFC0
07FFC0
0F87E0
1E00E0
3E0070
380000
380000
3E0000
3FC000
1FF800
0FFF00
01FF80
0007C0
0000E0
0000E0
0000E0
F000E0
7800E0
3E01E0
1FFFC0
0FFF80
01FE00
01FE00
ENDCHAR
STARTCHAR 084
ENCODING 84
SWIDTH 1728 0
DWIDTH 24 0
BBX 20 26 3 0
BITMAP
800010
FFFFF0
FFFFF0
FFFFF0
FFFFF0
FFFFF0
01F800
01F800
01F800
01F800
01F800
01F800
01F800
01F800
01F800
01F800
01F800
01F800
01F800
01F800
01F800
01F800
01F800
01F800
07FE00
07FE00
ENDCHAR
STARTCHAR 085
ENCODING 85
SWIDTH 1728 0
DWIDTH 24 0
BBX 18 25 4 0
BITMAP
FC0FC0
F003C0
F003C0
F003C0
F003C0
F003C0
F003C0
F003C0
F003C0
F003C0
F003C0
F003C0
F003C0
F003C0
F003C0
F003C0
F003C0
F003C0
F003C0
F003C0
7C0F80
7FFF80
3FFF00
1FFE00
0FFC00
ENDCHAR
STARTCHAR 086
ENCODING 86
SWIDTH 1728 0
DWIDTH 24 0
BBX 20 25 3 0
BITMAP
FF07F0
FF07F0
F800F0
F800F0
7000F0
7000E0
7000E0
7001E0
3801C0
3801C0
3803C0
380380
3C0780
1E0700
1E0F00
0E0F00
0F1E00
0F1E00
0F1C00
07B800
07B800
03F000
01F000
01E000
01E000
ENDCHAR
STARTCHAR 087
ENCODING 87
SWIDTH 1728 0
DWIDTH 24 0
BBX 20 24 2 0
BITMAP
F000F0
7000E0
7000E0
7000E0
7000E0
7000E0
7000E0
7000E0
7000E0
7000E0
7000E0
7000E0
7060E0
70F0E0
71F0E0
73F8E0
73FCE0
779EE0
7F0FE0
7E07E0
7C03E0
7803C0
3801C0
100080
ENDCHAR
STARTCHAR 088
ENCODING 88
SWIDTH 1728 0
DWIDTH 24 0
BBX 20 27 2 0
BITMAP
F000F0
F000F0
7801E0
3803C0
1C0380
1E0780
1F0F00
0F0E00
079C00
07FC00
03F800
01F000
00E000
01F000
03F800
07FC00
079C00
0F9E00
0F0F00
0E0F00
1C0780
3C07C0
3803C0
7001E0
F000F0
F000F0
F000F0
ENDCHAR
STARTCHAR 089
ENCODING 89
SWIDTH 1728 0
DWIDTH 24 0
BBX 20 28 3 -1
BITMAP
F000F0
F000F0
7000E0
7000E0
3801C0
3801C0
380380
1E0780
0E0700
0F0F00
070E00
079E00
039C00
01F800
01F800
00F000
006000
006000
006000
006000
006000
006000
006000
006000
006000
07FE00
07FE00
01F800
ENDCHAR
STARTCHAR 090
ENCODING 90
SWIDTH 1728 0
DWIDTH 24 0
BBX 20 25 3 0
BITMAP
200000
600000
FFFFE0
FFFFE0
FFFFE0
000FC0
000F80
001F00
003E00
003C00
007C00
007800
00F000
01E000
01E000
03C000
078000
0F8000
0F0000
1F0010
7E0030
FFFFE0
FFFFE0
FFFFC0
FFFFC0
ENDCHAR
STARTCHAR 091
ENCODING 91
SWIDTH 1728 0
DWIDTH 24 0
BBX 11 30 8 -5
BITMAP
FFE0
FFE0
FFE0
FFE0
FFE0
F000
F000
F000
F000
F000
F000
F000
F000
F000
F000
F000
F000
F000
F000
F000
F000
F000
F000
F000
F000
F000
FFE0
FFE0
FFE0
FFE0
ENDCHAR
STARTCHAR 092
ENCODING 92
SWIDTH 1728 0
DWIDTH 24 0
BBX 14 25 5 0
BITMAP
E000
E000
E000
F000
3800
3800
3C00
1E00
1E00
0700
0700
0780
0380
01C0
01C0
00E0
00E0
00F0
00F0
0078
0078
001C
001C
001C
001C
ENDCHAR
STARTCHAR 093
ENCODING 93
SWIDTH 1728 0
DWIDTH 24 0
BBX 11 30 7 -5
BITMAP
FFE0
FFE0
FFE0
FFE0
FFE0
01E0
01E0
01E0
01E0
79E0
79E0
79E0
79E0
01E0
01E0
01E0
01E0
01E0
01E0
01E0
01E0
01E0
01E0
01E0
01E0
01E0
FFE0
FFE0
FFE0
FFE0
ENDCHAR
STARTCHAR 094
ENCODING 94
SWIDTH 1728 0
DWIDTH 24 0
BBX 20 15 3 10
BITMAP
006000
006000
00F000
01F800
01F800
03FC00
07FE00
07FE00
0FFF00
1FFF80
1FFF80
3F9FC0
3F0FC0
7E07E0
F801F0
ENDCHAR
STARTCHAR 095
ENCODING 95
SWIDTH 1728 0
DWIDTH 24 0
BBX 24 4 0 -5
BITMAP
FFFFFF
FFFFFF
FFFFFF
FFFFFF
ENDCHAR
STARTCHAR 096
ENCODING 96
SWIDTH 1728 0
DWIDTH 24 0
BBX 7 11 11 13
BITMAP
70
F8
F8
F8
F8
70
70
30
38
38
1E
ENDCHAR
STARTCHAR 097
ENCODING 97
SWIDTH 1728 0
DWIDTH 24 0
BBX 16 16 5 0
BITMAP
0004
0F9C
1FDC
3FF8
7FF8
F8F8
E078
E078
E078
E078
E078
E078
F8FB
7FFF
3FBE
1F1C
ENDCHAR
STARTCHAR 098
ENCODING 98
SWIDTH 1728 0
DWIDTH 24 0
BBX 17 27 4 -1
BITMAP
0E0000
1E0000
1E0000
3E0000
3E0000
FE0000
1E0000
1E0000
1E0000
1E0000
1E0000
1E0000
1EFC00
1FFE00
1FFF00
1F8F00
1F0380
1F0380
1F0380
1E0380
1E0380
1F0F80
1FFF00
1FFF00
3FFC00
3FF000
E00000
ENDCHAR
STARTCHAR 099
ENCODING 99
SWIDTH 1728 0
DWIDTH 24 0
BBX 14 17 6 0
BITMAP
07C0
1FF0
3FF8
7FFC
7C0C
F800
F000
F000
F000
F000
F000
F000
F80C
7FFC
7FF8
3FF0
0FC0
ENDCHAR
STARTCHAR 100
ENCODING 100
SWIDTH 1728 0
DWIDTH 24 0
BBX 17 27 4 0
BITMAP
001000
001C00
001F00
001E00
001E00
001E00
001E00
001E00
001E00
001E00
001E00
001E00
0F9E00
1FFE00
3FFE00
7C7E00
703E00
E01E00
E01E00
E01E00
E01E00
E03E00
E07E00
F0FF80
7FEF80
3FC700
0F0300
ENDCHAR
STARTCHAR 101
ENCODING 101
SWIDTH 1728 0
DWIDTH 24 0
BBX 15 18 5 0
BITMAP
03F8
0FFC
1FFC
3FFC
3E1C
7C1C
783C
7FF8
FFE0
FF80
FC00
E000
F800
7C02
7FFE
3FFC
1FF8
07E0
ENDCHAR
STARTCHAR 102
ENCODING 102
SWIDTH 1728 0
DWIDTH 24 0
BBX 15 25 5 0
BITMAP
01F8
03F8
03FC
03FC
039C
0380
0380
0380
0380
0380
0380
4382
4382
7FFE
FFFC
8384
8384
8384
0380
0380
0380
0380
0380
07C0
07C0
ENDCHAR
STARTCHAR 103
ENCODING 103
SWIDTH 1728 0
DWIDTH 24 0
BBX 15 24 5 -5
BITMAP
03E0
07F6
0FFE
1E3C
3C3C
383C
3838
3878
3C78
3FF0
1FE0
1FE0
07C0
01FE
07FC
1E60
3C60
7860
F060
E0C0
C1C0
8380
C700
7C00
ENDCHAR
STARTCHAR 104
ENCODING 104
SWIDTH 1728 0
DWIDTH 24 0
BBX 17 25 5 -1
BITMAP
200000
600000
600000
E00000
600000
600000
600000
600000
600000
600000
600000
600000
600000
63C000
67E000
7FE000
7FE000
7CE000
786000
606000
606080
607180
607F80
607F00
F83E00
ENDCHAR
STARTCHAR 105
ENCODING 105
SWIDTH 1728 0
DWIDTH 24 0
BBX 8 21 8 0
BITMAP
1C
1C
00
00
00
3C
3C
3C
3C
1C
1C
1C
1C
1C
1C
1C
1C
1C
3E
FF
FF
ENDCHAR
STARTCHAR 106
ENCODING 106
SWIDTH 1728 0
DWIDTH 24 0
BBX 15 28 5 -5
BITMAP
001E
001E
001E
001E
0000
0000
0000
0004
000C
000C
001C
001C
001C
001C
001C
001C
001C
001C
001C
001C
801C
C01C
C01C
C03C
E078
78F8
3FE0
1F80
ENDCHAR
STARTCHAR 107
ENCODING 107
SWIDTH 1728 0
DWIDTH 24 0
BBX 17 23 5 -3
BITMAP
180000
380000
780000
380000
380E00
381F00
383F00
387B00
38E300
39C000
3F0000
3F0000
3F0000
3F8000
39E000
38F800
387C80
383E80
381F80
380F80
700780
E00000
C00000
ENDCHAR
STARTCHAR 108
ENCODING 108
SWIDTH 1728 0
DWIDTH 24 0
BBX 14 26 6 0
BITMAP
00F8
01FC
01FC
038C
038C
030C
061C
061C
0E38
0C70
0CF0
1CE0
19C0
3F80
3F00
3E00
7C00
F800
F800
F838
3878
38F0
39C0
3F80
1F00
0E00
ENDCHAR
STARTCHAR 109
ENCODING 109
SWIDTH 1728 0
DWIDTH 24 0
BBX 19 17 3 0
BITMAP
0F8F80
3FDFC0
3FDFC0
7FFFE0
79F9E0
F060E0
F060E0
F060E0
E060E0
E060E0
E041E0
E041E0
C001C0
C007C0
C00780
C00700
C00700
ENDCHAR
STARTCHAR 110
ENCODING 110
SWIDTH 1728 0
DWIDTH 24 0
BBX 19 18 4 0
BITMAP
1C0000
1C0000
7FC000
7FF000
FFF800
DFFC00
9C3C00
1C3C00
1C3C00
1C3C00
1C3C00
1C3C00
1C3C20
1C3E60
3C1FE0
7C0FE0
FE07C0
FE0380
ENDCHAR
STARTCHAR 111
ENCODING 111
SWIDTH 1728 0
DWIDTH 24 0
BBX 15 16 5 0
BITMAP
07E0
1FF0
3FF8
7C3C
781E
F00E
E006
E046
E046
E046
F00E
781E
7E3C
3FF8
1FF0
07E0
ENDCHAR
STARTCHAR 112
ENCODING 112
SWIDTH 1728 0
DWIDTH 24 0
BBX 14 20 6 -4
BITMAP
7FF0
7FF0
7FF8
7FFC
703C
700C
700C
701C
703C
7FFC
7FF8
7FF0
7000
7000
7000
7000
7000
7000
7000
C000
ENDCHAR
STARTCHAR 113
ENCODING 113
SWIDTH 1728 0
DWIDTH 24 0
BBX 17 23 5 -6
BITMAP
000400
079C00
1FDC00
3FFC00
7FFC00
F87C00
F03C00
E01C00
E01C00
E01C00
E03C00
F07C00
7FFC00
3FDC00
1F9C00
001C00
001C00
001C00
001C80
001D80
001F00
001F00
001E00
ENDCHAR
STARTCHAR 114
ENCODING 114
SWIDTH 1728 0
DWIDTH 24 0
BBX 15 18 7 -1
BITMAP
1800
1C00
3C00
3F80
3FF0
3FFE
3C7C
3800
7800
7800
7800
7800
F800
F000
F000
F000
F000
E000
ENDCHAR
STARTCHAR 115
ENCODING 115
SWIDTH 1728 0
DWIDTH 24 0
BBX 13 18 6 -1
BITMAP
0FC0
3FE0
3FF0
7C78
7838
7808
3C00
1F00
0F80
07C0
01E0
00F0
0070
8070
C0F0
7FE0
7FC0
3F80
ENDCHAR
STARTCHAR 116
ENCODING 116
SWIDTH 1728 0
DWIDTH 24 0
BBX 15 23 4 0
BITMAP
0380
0380
0380
0380
0380
0380
FF80
7FFC
7FFC
03FE
03FE
0380
0380
0380
0380
0380
0380
0380
0382
03FE
03FE
03FC
03FC
ENDCHAR
STARTCHAR 117
ENCODING 117
SWIDTH 1728 0
DWIDTH 24 0
BBX 15 16 6 0
BITMAP
F00E
F00E
F00E
F00E
F00E
F00E
F00E
F00E
F00E
F00E
F01E
783C
7FFC
3FF8
0FF0
07E0
ENDCHAR
STARTCHAR 118
ENCODING 118
SWIDTH 1728 0
DWIDTH 24 0
BBX 20 17 3 0
BITMAP
FE01F0
7800E0
7800E0
3000C0
3801C0
180180
1C0380
0E0300
0E0700
070700
030E00
018E00
01DC00
00F800
00F000
007000
007000
ENDCHAR
STARTCHAR 119
ENCODING 119
SWIDTH 1728 0
DWIDTH 24 0
BBX 22 16 1 0
BITMAP
F0001C
F0001C
700038
300038
380030
180070
183060
1C7860
1C7860
0CFCE0
0CCCC0
0FCFC0
07C780
078780
030300
030300
ENDCHAR
STARTCHAR 120
ENCODING 120
SWIDTH 1728 0
DWIDTH 24 0
BBX 17 16 3 0
BITMAP
700380
780780
3C0F00
1E1E00
0F3C00
07F800
03F000
01E000
01C000
03E000
07F000
0FF800
1E3C00
3C1E00
780F00
F00780
ENDCHAR
STARTCHAR 121
ENCODING 121
SWIDTH 1728 0
DWIDTH 24 0
BBX 17 21 4 -5
BITMAP
E00380
E00780
700700
700700
380F00
3C0E00
1C1E00
0E1C00
0E1C00
073800
03B800
03F000
01F000
00E000
00E000
01C000
01C000
038000
4F0000
7E0000
7C0000
ENDCHAR
STARTCHAR 122
ENCODING 122
SWIDTH 1728 0
DWIDTH 24 0
BBX 16 17 5 0
BITMAP
FFFF
FFFF
FFFF
001F
003E
007C
00F8
01E0
03C0
03C0
0780
1F00
3E00
7FFF
FFFF
FFFF
FFFF
ENDCHAR
STARTCHAR 123
ENCODING 123
SWIDTH 1728 0
DWIDTH 24 0
BBX 11 29 7 -4
BITMAP
07E0
07E0
0600
0600
0600
0600
0600
0600
0600
0600
0600
0600
0E00
1C00
F800
7C00
0C00
0C00
0600
0600
0600
0600
0600
0600
0600
0600
0600
0600
03E0
ENDCHAR
STARTCHAR 124
ENCODING 124
SWIDTH 1728 0
DWIDTH 24 0
BBX 2 29 12 -4
BITMAP
C0
C0
C0
C0
C0
C0
C0
C0
C0
C0
C0
C0
C0
C0
C0
C0
C0
C0
C0
C0
C0
C0
C0
C0
C0
C0
C0
C0
C0
ENDCHAR
STARTCHAR 125
ENCODING 125
SWIDTH 1728 0
DWIDTH 24 0
BBX 14 30 5 -5
BITMAP
FE00
FE00
1F00
1F00
0700
0380
0380
0180
0180
0180
0180
0180
0180
00E0
007C
00E0
00C0
00C0
0180
0180
0180
0180
0180
0180
0180
0380
0700
0700
3F00
FE00
ENDCHAR
STARTCHAR 126
ENCODING 126
SWIDTH 1728 0
DWIDTH 24 0
BBX 18 14 4 2
BITMAP
0E01C0
1F01C0
3FC3C0
7FE3C0
F0FF80
E03E00
000000
000000
000000
1F01C0
7FC3C0
F0FF80
E07F00
E03E00
ENDCHAR
STARTCHAR 127
ENCODING 127
SWIDTH 1728 0
DWIDTH 24 0
BBX 24 36 0 -6
BITMAP
FFFFFF
FFFFFF
FFFFFF
FFFFFF
FFFFFF
FFFFFF
FFFFFF
FFFFFF
FFFFFF
FFFFFF
FFFFFF
FFFFFF
FFFFFF
FFFFFF
FFFFFF
FFFFFF
FFFFFF
FFFFFF
FFFFFF
FFFFFF
FFFFFF
FFFFFF
FFFFFF
FFFFFF
FFFFFF
FFFFFF
FFFFFF
FFFFFF
FFFFFF
FFFFFF
FFFFFF
FFFFFF
FFFFFF
FFFFFF
FFFFFF
FFFFFF
ENDCHAR
STARTCHAR 128
ENCODING 128
SWIDTH 1728 0
DWIDTH 24 0
BBX 24 33 0 -6
BITMAP
FFFFFF
FFFFFF
FE00FF
F8001F
F0000F
F0000F
E1FFE7
E00007
C03E03
C20003
C23EC1
1200C9
1200C9
123EC9
1200C9
D224C9
D224C9
1224C1
1224C1
1224C1
1224D9
1224D9
1224C1
1224C1
1224C9
1224C9
1224C9
1224C9
D224C9
D224C9
1224C9
1224C9
1224C9
ENDCHAR
STARTCHAR 129
ENCODING 129
SWIDTH 1728 0
DWIDTH 24 0
BBX 8 33 2 -6
BITMAP
F0
F0
F0
F0
B0
B0
B0
F0
F0
F0
F0
F0
F0
F0
F0
F0
FF
FF
FF
F0
F0
F0
F0
F0
F0
F0
F0
F0
B0
B0
F0
F0
F0
ENDCHAR
STARTCHAR 130
ENCODING 130
SWIDTH 1728 0
DWIDTH 24 0
BBX 20 26 3 -1
BITMAP
FF0FF0
FE07F0
F801F0
F801F0
F000F0
F000F0
F000F0
F000F0
F000F0
F000F0
F000F0
F000F0
F000F0
F000F0
F000F0
F000F0
F000F0
F000F0
F000F0
F801F0
7E07E0
7FFFE0
3FFFC0
1FFF80
1FFF80
07FE00
ENDCHAR
STARTCHAR 131
ENCODING 131
SWIDTH 1728 0
DWIDTH 24 0
BBX 20 31 3 -4
BITMAP
00F000
01F800
016800
01F800
01F800
016800
019800
00F000
006000
01F800
07FE00
0FFF00
0FFF00
1FFF80
3FFFC0
79F9E0
F1F8F0
C1F830
00F000
00F000
01F800
03FC00
07FE00
006000
006000
006000
006000
006000
006000
006000
006000
ENDCHAR
STARTCHAR 132
ENCODING 132
SWIDTH 1728 0
DWIDTH 24 0
BBX 18 18 4 3
BITMAP
00C000
00C000
00C000
0CCC00
1CCE00
1CCE00
1CCE00
1CCE00
DCCEC0
DCCEC0
1CCE00
1CCE00
1CCE00
1CCE00
0CCC00
00C000
00C000
00C000
ENDCHAR
STARTCHAR 133
ENCODING 133
SWIDTH 1728 0
DWIDTH 24 0
BBX 19 31 3 -6
BITMAP
00A800
095640
16F900
16F900
6F9E80
699F80
1FFE60
38FE60
F8E780
3FFF80
3FFF80
DFFE60
CFE7E0
3FE780
38FE60
F8FFE0
1FFF80
1FFF80
9FFE20
FF9E60
6799C0
37F980
2FFE80
16E900
16E900
00E000
00E000
00E000
00E000
00E000
00E000
ENDCHAR
STARTCHAR 134
ENCODING 134
SWIDTH 1728 0
DWIDTH 24 0
BBX 19 25 3 -6
BITMAP
060000
204800
069600
092840
092840
064000
372700
08F880
68F880
6FDF80
3FDFA0
3FDFA0
07FF40
C8FF80
C8E780
3FE760
3FFF60
CF3F80
CF3F80
D73840
29F680
08E900
00E000
00E000
00E000
ENDCHAR
STARTCHAR 135
ENCODING 135
SWIDTH 1728 0
DWIDTH 24 0
BBX 19 31 3 -6
BITMAP
00A000
186F00
0F3800
0F3800
21F880
31A7E0
18A720
0EBE00
C67800
476040
476040
38F9C0
47CF00
8FC000
0E78C0
187F80
F0E700
F0E700
07C180
0FC000
78F800
08FF80
08E000
10C000
10C000
00C000
00E000
00E000
00E000
00E000
00E000
ENDCHAR
STARTCHAR 136
ENCODING 136
SWIDTH 1728 0
DWIDTH 24 0
BBX 24 36 0 -6
BITMAP
030C06
030C06
030C04
0C103C
EC1038
ECE3C0
3CE3C0
1CEC30
1CEC30
03100C
03100C
FB13C2
FB13C3
04EC31
04EC30
04EC30
04EC30
E310CC
E310CE
1CCC03
1CCC00
E3C30E
E3C30E
041339
041330
18ECC0
18ECC0
E30CCE
E30CCF
E30CCF
041331
04F330
04F338
19CCCB
190CCE
E3180C
ENDCHAR
STARTCHAR 137
ENCODING 137
SWIDTH 1728 0
DWIDTH 24 0
BBX 24 36 0 -6
BITMAP
802008
800000
804010
400010
808000
208020
830000
944040
944040
834000
032080
801B00
840480
840000
400880
400880
840000
A01041
082032
84800C
904010
908020
908020
0328C0
A00700
240880
801003
48204C
908030
908030
4300C0
A40C20
50A020
AB0010
500000
2BDBB7
ENDCHAR
STARTCHAR 138
ENCODING 138
SWIDTH 1728 0
DWIDTH 24 0
BBX 24 5 0 10
BITMAP
210842
210842
739CE7
FFFFFF
CE739C
ENDCHAR
STARTCHAR 139
ENCODING 139
SWIDTH 1728 0
DWIDTH 24 0
BBX 21 34 2 -6
BITMAP
040400
000000
202020
000000
000000
804408
804408
040000
000000
108840
002000
000000
4F8F80
4F8F80
1FDCC0
3BFFE8
2FF7A0
70F870
607030
402010
402010
002000
002008
802000
002000
0FFFC0
302030
302030
602018
400018
600038
7FFFF8
3FFFF0
1FFFE0
ENDCHAR
STARTCHAR 140
ENCODING 140
SWIDTH 1728 0
DWIDTH 24 0
BBX 24 23 0 -5
BITMAP
0000F0
0001F8
0003D8
0003D8
00F708
01FE0C
0DFFFC
1F07F4
3FC714
2BF61E
2BF61E
321C0E
FE1C1E
E70FFC
E3EFF2
E7FFE2
E830C9
E830C9
33171D
37C8D5
EFE815
EFF8D5
07E71D
ENDCHAR
STARTCHAR 141
ENCODING 141
SWIDTH 1728 0
DWIDTH 24 0
BBX 23 34 1 -5
BITMAP
092002
095002
155004
152004
1FE00C
0FE008
0D4018
080018
0D4030
0FC030
14A070
17A040
1120E0
1860A0
3FE9C0
3FE980
7FEF80
7FF700
7FFFE0
FFE500
FFF100
FFEA00
FFFE00
FFC800
FFF800
FFF800
FFF800
FFF800
FFF800
FFF800
FFF800
FFF800
AAA800
AAA800
ENDCHAR
STARTCHAR 142
ENCODING 142
SWIDTH 1728 0
DWIDTH 24 0
BBX 24 29 0 -5
BITMAP
001E00
00FFC0
00FFC0
03FFF0
0FFFFC
1FFFFC
E7FFFB
F3FFE7
FCFFCF
FE7F9F
FF1E3F
FFC0FF
FFF3FF
FFF7FF
FFF7FF
FFF7FF
FFF7FF
FFF7FF
FFF7FF
FFF7FF
FFF7FF
3FF7FE
1FF7FC
1FF7FC
07F7F8
03F7E0
00F7C0
003E00
000800
ENDCHAR
STARTCHAR 143
ENCODING 143
SWIDTH 1728 0
DWIDTH 24 0
BBX 24 36 0 -6
BITMAP
C00001
C00001
200002
200002
100004
080008
080008
040010
040010
020020
020020
0100C0
00C100
00C100
002200
002200
001400
001400
000800
000C00
001400
002200
002200
002100
00C100
0100C0
010020
020020
040010
040010
040008
080008
100004
100002
200002
C00001
ENDCHAR
STARTCHAR 144
ENCODING 144
SWIDTH 1728 0
DWIDTH 24 0
BBX 24 36 0 -6
BITMAP
C00001
C00001
200002
200002
100004
080008
080008
040010
040010
020020
020020
0100C0
00C100
00C100
002200
002200
001400
001400
000800
000C00
001400
002200
002200
002100
00C100
0100C0
010020
020020
040010
040010
040008
080008
100004
100002
200002
C00001
ENDCHAR
STARTCHAR 145
ENCODING 145
SWIDTH 1728 0
DWIDTH 24 0
BBX 24 36 0 -6
BITMAP
DF3F3B
DF3F3B
FBFDFF
FEF73F
2FFFE6
FFEEE7
F9FFFF
D9FFDB
D9FFDB
FFDDFE
3FFFFF
FFFFDA
F6FBFF
3FFEFF
FFCFEF
FFCFEF
FDCFFD
3FFBFF
F7FEDE
FF37FF
FFFFF7
EFFE3F
EFFE3F
3FDE3E
F9FFFF
FFFBF7
37DFDF
FFFFFE
FFFB37
FFFB37
ECFFFF
3CEFCF
FFFBCB
FFFFFE
EF3EFF
3FF7EF
ENDCHAR
STARTCHAR 146
ENCODING 146
SWIDTH 1728 0
DWIDTH 24 0
BBX 24 36 0 -6
BITMAP
FFFFFF
FFFFFF
3F3F3F
3F3F3F
1E1E1E
1E1E1E
C0C0C0
E1E1E1
E1E1E1
FFFFFF
FFFFFF
3F3F3F
3F3F3F
1E1E1E
1E1E1E
1E1E1E
C0C0C0
E1E1E1
FFFFFF
FFFFFF
3F3F3F
3F3F3F
3F3F3F
1E1E1E
1E1E1E
C0C0C0
E1E1E1
FFFFFF
FFFFFF
FFFFFF
3F3F3F
3F3F3F
1E1E1E
1E1E1E
C0C0C0
E1E1E1
ENDCHAR
STARTCHAR 147
ENCODING 147
SWIDTH 1728 0
DWIDTH 24 0
BBX 18 27 4 -3
BITMAP
008000
00C000
00C000
00C000
01E000
01E000
02D000
05F000
0DDC00
0DDC00
12AE00
22A200
2C9100
7FFF80
FFFF80
A26EC0
A26EC0
F35140
5D6280
2ECD00
135200
0DEC00
02D000
02D000
01E000
00C000
004000
ENDCHAR
STARTCHAR 148
ENCODING 148
SWIDTH 1728 0
DWIDTH 24 0
BBX 24 33 0 -5
BITMAP
1F31DD
3FE3FF
2FD9FE
37EBFE
0FC2EB
000000
000000
000000
3E0FFC
FF1FFE
FED7FE
FF1FDE
FFDBF6
FFDBF6
1F0FFC
000000
000000
33F3F4
FFFBFE
FFE3FC
FFE3FC
FFF9FC
3FE3FC
DF11CA
000000
000000
1FC7FB
1FC7FB
3F07FF
3FEBFD
1FE7FE
3FEBFC
15C62A
ENDCHAR
STARTCHAR 149
ENCODING 149
SWIDTH 1728 0
DWIDTH 24 0
BBX 24 36 0 -6
BITMAP
FF3FDF
FF3FDF
3F3F3E
C7F6F6
D7C9F7
FF330B
3AF7DD
38FF3F
38FF3F
06F736
3B0B0F
FB3D3F
3BFD3B
D5DCFC
2FEF06
2FEF06
FE33F9
FEFBDB
07EBDD
F9EFD9
FDDF3E
392D3E
392D3E
C6FED6
3F32F7
FBF4E2
3FCFDD
C31F3D
3ADFF9
3ADFF9
39EE36
FFCD2F
D7F31C
EB372C
F937F3
3EF9FF
ENDCHAR
STARTCHAR 150
ENCODING 150
SWIDTH 1728 0
DWIDTH 24 0
BBX 24 34 0 -6
BITMAP
1F31DD
32E337
2CD9FE
37EB1C
0FC2EB
000000
000000
000000
3E0FFC
FF1BEA
FAD6F4
ED1DCA
F5DBF6
F5DBF6
1F0FFC
000000
000000
33F3F4
EFDBDE
F6E22C
F6E22C
EF19D8
36E2F4
DF11CA
000000
000000
1FC7FB
1FC7FB
2F06F7
36EBCD
0F26F6
36EBF4
2DC62A
100100
ENDCHAR
STARTCHAR 151
ENCODING 151
SWIDTH 1728 0
DWIDTH 24 0
BBX 21 18 2 3
BITMAP
000010
000020
1F0058
7FC0B0
6FF360
FFFBD8
FFFBD8
BFFFB0
F0FF60
E03FC8
CF1F90
9F8F60
30C008
30C008
606038
C070F0
803FE0
001F00
ENDCHAR
STARTCHAR 152
ENCODING 152
SWIDTH 1728 0
DWIDTH 24 0
BBX 24 25 0 -1
BITMAP
000007
00000F
00001F
00003F
00007F
0000FE
0001FC
0003F8
0003F0
000FE0
000FC0
003F00
003F00
19FC00
19FC00
19FC00
07F000
07F000
07C000
07C000
183000
183000
783000
E00000
E00000
ENDCHAR
STARTCHAR 153
ENCODING 153
SWIDTH 1728 0
DWIDTH 24 0
BBX 19 33 2 -5
BITMAP
E00000
F00000
7C0000
3C0000
3F8000
1FF000
1FF000
1FFC00
1FFF00
1FFF80
1F0FC0
1F0FC0
1F03C0
1F03C0
1F03C0
1F0F80
1FFF80
1FFF00
1FFFC0
1F00E0
1F00E0
1F0060
1F0060
1F00E0
1F03E0
07FFC0
1BFF80
1BFF80
1BFF00
1CF000
3F8000
7F0000
FC0000
ENDCHAR
STARTCHAR 154
ENCODING 154
SWIDTH 1728 0
DWIDTH 24 0
BBX 20 27 3 -2
BITMAP
000020
000060
003FE0
01FFE0
0FFFE0
1FFFA0
3FFFE0
7F9FE0
7F8EE0
7FC760
7FC760
F841A0
FE0000
FF0000
F00000
F00000
F00000
F00000
F00000
F04000
FFD8F0
7FF9F0
7FF7C0
3FFF00
3FFF00
3FFF00
0FFE00
ENDCHAR
STARTCHAR 155
ENCODING 155
SWIDTH 1728 0
DWIDTH 24 0
BBX 22 28 1 -5
BITMAP
0FFE00
0FFE00
0FFFC0
0FFFE0
0FFFF0
0FC3F8
0FC1F8
0FC07C
0FC07C
0FC07C
1FC03C
3FC03C
7DC03C
F9C03C
F9C03C
7DC03C
3FC03C
1FC03C
0FC03C
0FC03C
0FC07C
0FC1F8
0FC1F8
0FC3F8
0FFFF0
0FFFE0
0FFFC0
0FFE00
ENDCHAR
STARTCHAR 156
ENCODING 156
SWIDTH 1728 0
DWIDTH 24 0
BBX 23 28 0 -5
BITMAP
FFFFE0
FFFFE0
3FFFF8
1CFFFC
0EE1FC
07E0FE
07E03E
07E01E
07E01E
07E01E
07E01E
07E01E
07E01E
07E01E
07E01E
07E01E
07E01E
07E01E
07E01E
07E01E
07E01E
07E03E
07E03E
06E0FE
0CE1FC
1FFFFC
3FFFF8
FFFFE0
ENDCHAR
STARTCHAR 157
ENCODING 157
SWIDTH 1728 0
DWIDTH 24 0
BBX 24 36 0 -6
BITMAP
C00001
C00001
200002
200002
100004
080008
080008
040010
040010
020020
020020
0100C0
00C100
00C100
002200
002200
001400
001400
000800
000C00
001400
002200
002200
002100
00C100
0100C0
010020
020020
040010
040010
040008
080008
100004
100002
200002
C00001
ENDCHAR
STARTCHAR 158
ENCODING 158
SWIDTH 1728 0
DWIDTH 24 0
BBX 16 36 4 -6
BITMAP
01C0
01C0
0180
0180
0380
0300
0700
0600
0E00
0E00
1C00
1C01
3803
7FFE
7FFE
7FFE
C01C
801C
0038
0030
0070
0060
0060
00E0
00C0
01C0
0180
2380
3F00
3F00
3FE0
3FC0
3F80
3F00
3E00
3000
ENDCHAR
STARTCHAR 159
ENCODING 159
SWIDTH 1728 0
DWIDTH 24 0
BBX 24 29 0 -2
BITMAP
000E00
301C00
383808
1CF008
0CF008
0CF008
0CE018
0DE7F0
0DCFF1
05D9CE
E5DB1C
F5EB19
F5EB19
39E633
1DE633
0CF736
06F332
1AFB18
0C3F1D
0C3F1D
EE3F1D
17EE38
1BF4C6
0B3836
04D9F6
07DBCE
07DBCE
07DB3D
0003DC
ENDCHAR
STARTCHAR 160
ENCODING 160
SWIDTH 1728 0
DWIDTH 24 0
BBX 22 29 2 -2
BITMAP
00FC00
00FC00
00D400
00FC00
E0FC1C
E0FC1C
E0FC1C
E0FC1C
000000
7800F8
7BFCF8
7BFCF8
7BFCF8
7BFCF8
03FC00
03FC00
03FC00
03FC00
000000
000000
0F00E0
0F00E0
0F00E0
000000
0000F8
3F00F8
3F00F8
3F00F8
3F00F8
ENDCHAR
STARTCHAR 161
ENCODING 161
SWIDTH 1728 0
DWIDTH 24 0
BBX 24 33 0 -5
BITMAP
019E61
21BF63
307F86
186486
0C7B8C
073F9C
07BF1C
03F1B0
09FFAC
1DFFEC
3EDDDE
7EDDDE
FCDDDF
FCDDCF
F0C1CF
70FFC7
78FFC7
387F06
391E2F
020C0E
020C0E
09E1E0
03F3E8
07F3F0
07E1F8
04E1C8
05E1E8
05E1E8
0FE1FC
0FC0FC
1AC0D6
15C0EE
1540EA
ENDCHAR
STARTCHAR 162
ENCODING 162
SWIDTH 1728 0
DWIDTH 24 0
BBX 24 36 0 -6
BITMAP
001FC0
001FC0
0435DC
0EEADC
0FD5FE
1EFF0E
3C000E
F80E0F
F80E0F
F81F1F
FE153F
FF1F3F
3F1F3E
3FCEFC
1FF1FC
1FF1FC
07FFF8
01FFF0
01FFF0
01FFF0
01FFF0
07FFF0
07FFF0
0FFFF8
3FFFFC
3FFFFE
3FC0FE
1E00FE
1E001E
1E001E
0F003C
070038
0701F0
0E01F0
1C01FC
1C003C
ENDCHAR
STARTCHAR 163
ENCODING 163
SWIDTH 1728 0
DWIDTH 24 0
BBX 22 34 2 -6
BITMAP
000784
0007CC
0003CC
0000EC
0000EC
000078
000078
000078
000038
000038
000038
000078
000078
000078
0000F8
3C00F8
7F03F8
7F87F8
FFFFF8
FFFFF8
FFFFF8
FFFFF8
F7FFF8
FFFFF0
FFFFF0
FC7FE0
F4FFC0
F4FFC0
CBFF80
D4FF00
2BFC00
37F000
1FC000
1F8000
ENDCHAR
STARTCHAR 164
ENCODING 164
SWIDTH 1728 0
DWIDTH 24 0
BBX 23 33 0 -5
BITMAP
0FE000
17F000
3FF800
6B2800
57F800
B5D000
B5D000
6DE000
CCEE00
321C00
17FD00
37FDC0
33F1E0
33F1E6
E220FE
E1F036
F8F000
3F6000
033800
04FC00
06FC00
0FFC00
1FFE00
1FFE00
3FFF00
7FFF00
FFFF00
FFFF00
F0FFC0
080FC0
1C0200
380380
0003C0
ENDCHAR
STARTCHAR 165
ENCODING 165
SWIDTH 1728 0
DWIDTH 24 0
BBX 24 31 0 -3
BITMAP
003C00
004200
003C00
000000
001C00
0C3C30
0C3C30
1E3E38
1E2A7C
3F3EFC
3F14FE
3EEB3E
7E363E
7E363E
7D3EDF
FD3EDF
FBDDEF
FBDDEF
FBC1EF
F33EEF
F33EEF
F7FEEF
36FFFF
36FF3E
31FF06
23FF02
20E7C2
20E7C2
00E300
01E3C0
03E3E0
ENDCHAR
STARTCHAR 166
ENCODING 166
SWIDTH 1728 0
DWIDTH 24 0
BBX 24 34 0 -6
BITMAP
00003E
000EFC
001DFC
003BF8
00FBFC
01FBFE
01FBFE
01F7FE
01F7FC
01E7FC
01DFFC
01DFD8
031E3E
031E3E
033FFE
032EF8
003DC0
1EFFF0
2BFFF8
FCF2E0
FCF2E0
D5F400
03F800
07FE00
03FF00
01FFE0
00FFF8
00FFF8
033FFE
041FFB
0A17FC
0AE3E8
08D010
00D000
ENDCHAR
STARTCHAR 167
ENCODING 167
SWIDTH 1728 0
DWIDTH 24 0
BBX 24 25 0 -2
BITMAP
E30000
E30000
7F0000
7F0000
6B0000
7F0000
21C006
2DF00F
2DF00F
3FFFC3
3FFFF3
3FFFFB
3FFFFE
1FFFFC
1FFFF8
1FFFF8
0FFFFC
0FF9FC
0EF8FE
0C30FE
0C30E6
0C30E6
0C30E6
0C31CE
1CF000
ENDCHAR
STARTCHAR 168
ENCODING 168
SWIDTH 1728 0
DWIDTH 24 0
BBX 24 33 0 -6
BITMAP
003800
01EC00
03FE38
001E2C
00FEFC
00FEFC
001CF8
F01DF4
D83DF0
FC3DE0
1E3FE4
3F3FCA
3F3FCA
EFFFCF
0FFF1F
07FF3E
07FE3D
03FCF8
03FFF8
03FFF8
01FFF0
00FFE0
003FC0
003FC0
001FE0
000FE0
000FE0
07C7E0
0FFFEE
1FFFFF
1FFFFF
0F3E3E
001C0C
ENDCHAR
STARTCHAR 169
ENCODING 169
SWIDTH 1728 0
DWIDTH 24 0
BBX 24 31 0 -4
BITMAP
040010
1C001C
1900CC
D900CD
D900CD
D900CD
D9C1CD
D9E3CD
DCFF1D
F8C92F
3E3E1E
CD1CF9
CD1CF9
F5DDF7
FA2A2F
FEDD1F
FCF73F
E1F7E3
18FF0C
18FF0C
F61C37
2C3E3A
0CFF38
0EFF38
0DFFF8
04FF30
04FF30
043E30
0E0038
19C1EC
102224
ENDCHAR
STARTCHAR 170
ENCODING 170
SWIDTH 1728 0
DWIDTH 24 0
BBX 24 36 0 -6
BITMAP
200E01
200E01
D01102
282AC5
D520CA
2AF5D5
053FE8
003FD0
003FD0
00DF20
002EC0
00D500
002AC0
00D520
012AC0
012AC0
02D530
1900C6
0C120C
063F18
03FFF0
09FFE4
09FFE4
0F3F3C
031E30
13CCF4
09FFE8
14FFD4
08FFC8
08FFC8
143F14
081E08
003F00
002D00
003F00
001E00
ENDCHAR
STARTCHAR 171
ENCODING 171
SWIDTH 1728 0
DWIDTH 24 0
BBX 24 26 0 -1
BITMAP
1C0808
040808
020810
020810
C20820
C20820
21FFC0
21FFC0
21C7E7
1F01F8
1F01F8
0300E0
061030
063830
3E18F0
2600F0
C701E0
C701E0
C703F8
03C7E7
02FFC0
040820
040820
180810
180810
200808
ENDCHAR
STARTCHAR 172
ENCODING 172
SWIDTH 1728 0
DWIDTH 24 0
BBX 19 31 3 -5
BITMAP
007FC0
018060
077F20
0E80E0
0E80E0
0906A0
0E7860
0187E0
01FFE0
007FE0
00CFE0
00CFE0
00BFC0
067F80
01BF80
007F80
013F00
06FE00
06FE00
007800
09F000
08F000
07E000
0FC000
278000
278000
1E0000
180000
300000
400000
800000
ENDCHAR
STARTCHAR 173
ENCODING 173
SWIDTH 1728 0
DWIDTH 24 0
BBX 24 22 0 -4
BITMAP
00000C
00000C
00000E
00000E
080007
08C003
1DC003
3FC003
37C002
3FE3F3
3FE3F3
3FFFFE
1FFFFE
3FFFFF
3FFFFF
1FFFFF
3FFBFF
3FFBFF
FDF0F7
E3C1F6
C703E6
0E000C
ENDCHAR
STARTCHAR 174
ENCODING 174
SWIDTH 1728 0
DWIDTH 24 0
BBX 23 31 0 -6
BITMAP
0000F0
000308
000404
000404
000800
0019DA
0031D8
00E002
03C000
0700E2
0700E2
0CC0E0
1300E6
2B0002
1EC006
D2C00E
23000A
23000A
040014
C700E4
0EC138
1001CC
152308
EDDA14
EDDA14
1B3508
222E10
271400
0C0800
141000
002000
ENDCHAR
STARTCHAR 175
ENCODING 175
SWIDTH 1728 0
DWIDTH 24 0
BBX 24 27 0 -6
BITMAP
000F00
003FC2
00FFC2
001AC2
001FC2
003F02
007902
00FF02
01FF02
03FF82
07FF82
07FFC2
0FFDC7
1FFCE7
1FFCFA
3FFC7E
3FFC00
3FFE00
7FFF00
7FFF80
7FF380
FFF1C0
FFE0C0
FE00E0
000010
070070
0E0038
ENDCHAR
STARTCHAR 176
ENCODING 176
SWIDTH 1728 0
DWIDTH 24 0
BBX 12 28 7 -4
BITMAP
1C00
3E00
7E00
7E00
1200
7E00
1E00
0F00
0F80
0FC0
0FE0
0F70
0F30
0F10
1F10
1710
1710
6710
6710
8730
0550
0550
0500
0500
0500
0500
0500
0500
ENDCHAR
STARTCHAR 177
ENCODING 177
SWIDTH 1728 0
DWIDTH 24 0
BBX 22 34 2 -4
BITMAP
000008
000008
00005C
00007C
00007C
00007C
00707C
008860
008860
008860
005020
008820
00F820
0B8CB0
34FB70
34FB70
6BFCB0
E4F3F8
FB74F8
EC8BF8
EB5430
ECAB00
ECAB00
E35400
E4AB00
F35400
77FF00
77FF00
07DF00
07DF00
078F00
0F8F80
1F8FC0
1F8FC0
ENDCHAR
STARTCHAR 178
ENCODING 178
SWIDTH 1728 0
DWIDTH 24 0
BBX 21 32 3 -4
BITMAP
000008
000018
08E010
07C020
07A060
018040
018040
01E080
073180
0EA100
098600
0FEE00
08E800
08E800
08D000
0E8800
0E4600
075000
0FF000
0FF000
0FF000
1FF000
1E3000
1E3000
181800
381800
381800
381800
301800
301800
701E00
E01F00
ENDCHAR
STARTCHAR 179
ENCODING 179
SWIDTH 1728 0
DWIDTH 24 0
BBX 24 34 0 -4
BITMAP
040004
040004
040004
06000C
03C078
01DE70
003E00
002400
002400
002D00
033E18
01DE30
1DDC36
3E201F
3E001F
3E001F
FCC027
F0E0E7
F0FFE7
38000C
38000C
38000C
38000C
000000
01C030
03E0F8
07E0FC
07C03C
07001C
07001C
000000
0E000E
180003
380003
ENDCHAR
STARTCHAR 180
ENCODING 180
SWIDTH 1728 0
DWIDTH 24 0
BBX 22 32 2 -5
BITMAP
000C00
002C00
000010
000020
000000
000000
000078
00E0F8
03F3F8
3FFF90
7FFF98
7FFFFC
7FFFFC
3FF8FC
3FF0F8
3FE3F0
77C7E0
E78FE0
E71FF0
E71FF0
E03FF0
707FE0
7FFF80
3FFF80
3FFF80
7F9F80
7F9F80
7F8788
3F0000
1C0000
000380
800000
ENDCHAR
STARTCHAR 181
ENCODING 181
SWIDTH 1728 0
DWIDTH 24 0
BBX 24 22 0 2
BITMAP
03F000
1FFC00
1FFC00
3FFFE3
7EFFFE
7EFFFC
780F30
7C0000
3F00FC
3F00FC
1FFFFE
0FFFFF
0FFFFF
03F00F
000007
00000F
00000F
07FFFF
1FFFFD
37FFFE
FDE1FC
F80000
ENDCHAR
STARTCHAR 182
ENCODING 182
SWIDTH 1728 0
DWIDTH 24 0
BBX 23 30 1 -3
BITMAP
700200
700A80
502AA0
A83FE0
701020
701020
2015A0
201220
200840
21CA50
206DAC
23B66E
23B66E
2239EE
282620
6C1860
682780
203FE0
207FF0
207FF0
21C618
20766C
21E030
200000
21C01C
200000
200006
21C018
23C01C
27801E
ENDCHAR
STARTCHAR 183
ENCODING 183
SWIDTH 1728 0
DWIDTH 24 0
BBX 24 35 0 -6
BITMAP
008480
044900
022A18
09FCE0
063F00
01FE38
18EBC0
06FFC0
03FF00
0536C0
0B3C30
031BCC
14C700
05FF20
05FF20
0DFF30
2EFC3A
18C81F
1C3C0E
F82C05
102A00
106900
00CF00
011F00
03FF00
07FFC0
07FFC0
07FFE0
07FFE0
0FFFE0
1FFFE0
1C1FF0
0203F0
070000
0E00F0
ENDCHAR
STARTCHAR 184
ENCODING 184
SWIDTH 1728 0
DWIDTH 24 0
BBX 19 24 3 0
BITMAP
800020
41A0C0
41A0C0
7659C0
7659C0
39A700
3E5F00
4FFEC0
B7F920
B7F920
B7F920
4FFEC0
4FFEC0
B7F920
B7F920
4FFEC0
4FFEC0
3E5F00
39A700
7659C0
7659C0
41A0C0
800020
800020
ENDCHAR
STARTCHAR 185
ENCODING 185
SWIDTH 1728 0
DWIDTH 24 0
BBX 24 33 0 -5
BITMAP
002100
00E1C0
002100
E01E00
E03F00
101E00
101E00
081E00
07331D
0E212A
013F36
1DC0ED
1DFFDB
1DFFDB
3EFF37
3CFEE3
F81DC3
E0E307
FD26E7
FE2DF7
FE2DF7
3F1118
0FEEEC
03E2F4
05E0F8
0400F8
040038
040038
070038
040008
070038
0F003C
1E001E
ENDCHAR
STARTCHAR 186
ENCODING 186
SWIDTH 1728 0
DWIDTH 24 0
BBX 23 32 0 -4
BITMAP
000004
00000A
00000A
00000A
003C0A
00FE04
00FE04
00E20C
00D608
00C3EC
07D224
04E4D4
0C38CC
0C38CC
12190C
110904
2101E4
23C71C
DE3F04
C038C4
C038C4
C3C0C4
3E0024
040014
080014
180014
18FE1C
18FE1C
FF023C
F9FFFC
3FFFE4
0FC7C0
ENDCHAR
STARTCHAR 187
ENCODING 187
SWIDTH 1728 0
DWIDTH 24 0
BBX 22 30 0 -4
BITMAP
000200
000700
000F80
001FC0
001FC0
003BC0
00F8E0
81FFF0
41FFF0
41FFF8
23FFFC
23FFFC
13FFFC
1BFFCC
0F3FCC
0F1FF8
063FF0
00FFE0
00FFE0
00FFF0
00FFF0
00FFF0
00FFF0
01FFF0
01FFF8
01FFF8
01FFF8
01C018
03C01C
03000C
ENDCHAR
STARTCHAR 188
ENCODING 188
SWIDTH 1728 0
DWIDTH 24 0
BBX 24 32 0 -6
BITMAP
603800
60FC00
30D400
0AFC00
0AFC00
033C00
0B3800
0DC900
1DF800
1DF3FF
39E3FF
39E3FF
31CBFF
001BFF
18DB3F
19DA3F
033D1E
031D1E
031D1E
02E6FC
1618FC
352638
2831C0
0E0230
0C01CC
0C01C2
1C01C0
1C0020
2003E0
3C01F0
F800F8
F00000
ENDCHAR
STARTCHAR 189
ENCODING 189
SWIDTH 1728 0
DWIDTH 24 0
BBX 23 36 0 -6
BITMAP
080610
080610
080610
0CDFCC
0CDFCC
37FDFC
37FDFC
3FF9EC
3FF9EC
3FF9EC
3F003C
3F003C
3C001C
3C001C
F7C1E4
F7C1E4
F7C1E4
3FE1F2
3FE1F2
0FC1D2
0FC1D2
0701F2
0701F2
0701F2
0F1810
0F1814
043C24
043C20
0BE5E8
0BE5E8
0BE5E0
08C200
08C200
30C20C
30C20C
0B01C0
ENDCHAR
STARTCHAR 190
ENCODING 190
SWIDTH 1728 0
DWIDTH 24 0
BBX 24 35 0 -5
BITMAP
000FF0
000FF0
000FF0
000910
000FF0
03EFF0
0FE7F0
1E03F0
1E03F0
1E2BFC
3804EC
78EADE
79011E
F8F51E
E2080E
E2080E
E1340F
D1270F
381307
FAC707
391307
0CE3E5
04E3E5
0203E3
0900E0
0CD8E0
1EF4F8
1E6AF8
FED6FE
FED6FE
FE6CFE
FE38FE
FE00FE
1E0000
1E0000
ENDCHAR
STARTCHAR 191
ENCODING 191
SWIDTH 1728 0
DWIDTH 24 0
BBX 24 32 0 -4
BITMAP
000003
000007
00003F
000037
0003FF
0003FF
0003FF
0000FC
0001FC
01FFFF
07FFFE
0FFFE0
3FFFC0
3FFFC0
3FFFC0
FFFFE0
FFFFF0
FFFFF0
FFFFF8
FFFFF8
FFFFF8
FFFEFC
FFFE3C
F7FE2A
F32F00
F30F00
F307C0
F307C0
F3E2C0
F9C000
38C000
180000
ENDCHAR
STARTCHAR 192
ENCODING 192
SWIDTH 1728 0
DWIDTH 24 0
BBX 24 29 0 -2
BITMAP
001FC0
000F20
003FF0
E01FF8
383FF8
383FF8
383F38
1C3F00
1C1F06
1C0FCF
1C1FF9
0C3FF0
0C3FF0
0CFFFE
0DFFC3
07FF01
03FE00
00FE00
00FE00
00FE00
01FE00
01EC00
03CC00
03CC00
01C600
00E300
00E300
0031C0
001800
ENDCHAR
STARTCHAR 193
ENCODING 193
SWIDTH 1728 0
DWIDTH 24 0
BBX 24 28 0 -4
BITMAP
01FFF8
01FFF8
01FFF8
1FFFFE
1FF03E
FF07C7
FCFFEF
FDFFF3
F9FFF3
F9FFF3
FFC0F7
FBC0F7
FFC0F3
F7C4FB
F7C6F3
F7C3F7
F7C3F7
F3FEF7
F9FE37
1DFFCE
1E0FCE
1FF5CE
1FFFE6
1FFFE6
03FFFC
01FFEE
000007
000003
ENDCHAR
STARTCHAR 194
ENCODING 194
SWIDTH 1728 0
DWIDTH 24 0
BBX 24 17 0 -5
BITMAP
0203E0
070FF8
1DFFFC
FFFFFC
FFFFFC
0FFFFE
07FFFE
01FFFE
003FFE
0013FE
0021F6
0021F6
0000C3
000101
000001
000001
000002
ENDCHAR
STARTCHAR 195
ENCODING 195
SWIDTH 1728 0
DWIDTH 24 0
BBX 23 36 0 -6
BITMAP
01F000
03F8C0
0F7C60
1E3E30
3F7E38
7FFF38
EBFF1C
F7FF9C
57FF9E
2FFF8E
5FFFCE
7E7FCE
78FFCE
01FFCE
01FFCE
03FFCE
07FFCE
1FFFDE
277FDC
1E7FFC
247FFC
2C7FF8
107FF8
107FF8
00FFF0
00FFF0
01FFF0
01FFF0
01FBE0
01FBE0
00F3E0
0073C0
0031C0
0070C0
016BC0
02F7E0
ENDCHAR
STARTCHAR 196
ENCODING 196
SWIDTH 1728 0
DWIDTH 24 0
BBX 19 34 5 -6
BITMAP
078000
7FC000
FDE000
FFF800
9FF800
5FFC00
7FFC00
FFFC00
03FE00
1FFEC0
3FFE60
7FFE60
63FE60
63FE60
47FE60
1FFEE0
1FFEE0
1BFFE0
03FFE0
03FFC0
03FFC0
03FFC0
03FF80
07FF00
1FFF00
1FFE00
1FFE00
1FFE00
1F9E00
071E00
070600
1F0600
3E1E00
603F00
ENDCHAR
STARTCHAR 197
ENCODING 197
SWIDTH 1728 0
DWIDTH 24 0
BBX 24 34 0 -6
BITMAP
002A00
003E00
003E00
241C11
283E0A
12082A
12082A
F42A15
181C0A
D7000C
201C13
100006
0FC10A
0FC10A
003628
00C918
003608
000800
003600
000800
000800
002200
00F700
003600
002A00
002200
00E300
00E300
002200
002200
002200
00E300
00C1C0
01C120
ENDCHAR
STARTCHAR 198
ENCODING 198
SWIDTH 1728 0
DWIDTH 24 0
BBX 24 34 0 -6
BITMAP
00E000
00F800
003C00
1E1E00
3F0600
37C200
37C200
21E200
003AFC
3E3FFF
FFDFFF
FBF7FF
E0FDFF
E0FDFF
C0373E
07FDFC
0FD720
1CFDFE
38EFFF
383AEF
383AEF
F03F33
F01F33
E03B19
E03119
0031D9
0031C8
0031C8
0031CC
0031CC
0031CC
0031CC
0021CC
0001C0
ENDCHAR
STARTCHAR 199
ENCODING 199
SWIDTH 1728 0
DWIDTH 24 0
BBX 23 30 1 -3
BITMAP
001C00
00DD80
00C980
003600
0E3E38
0E3E38
07A260
03A258
1BDDD8
3DE3BC
7DFFBC
F9FF9E
F9FF9E
E1FF8E
E1FF8E
71818E
707E0C
723C5E
04181C
04181C
13C3C0
07C3D0
0FC3E0
0F81F0
098190
0B81D0
0B81D0
1F81F8
1F81F8
3581AC
ENDCHAR
STARTCHAR 200
ENCODING 200
SWIDTH 1728 0
DWIDTH 24 0
BBX 19 22 3 -4
BITMAP
1FF800
3FFE00
79F700
79F700
F8E780
DE0F80
DF1FC0
CE0FC0
E6AFE0
E001E0
E001E0
F6E8E0
FE0E60
FE0FE0
FE07E0
FE07E0
7C47E0
7847E0
7847C0
30E1C0
3FFF80
0FFF00
ENDCHAR
STARTCHAR 201
ENCODING 201
SWIDTH 1728 0
DWIDTH 24 0
BBX 24 33 0 -6
BITMAP
080008
18000C
1C221C
22E322
21E3C2
21E3C2
C1FFC1
E4E311
EE1422
35003D
CADC1E
C9202C
C9202C
D2D036
D72836
F6D43A
F42A1A
1015FA
0CD600
0CD600
0420C0
01D500
01C0E0
01F0F0
01E010
01C0D8
01C0D8
0121E8
02C0D0
012120
00F1C0
0031C0
0031C0
ENDCHAR
STARTCHAR 202
ENCODING 202
SWIDTH 1728 0
DWIDTH 24 0
BBX 24 31 0 -4
BITMAP
0003C0
001DE0
000FE0
000D20
0007E0
0007E0
0007FF
F01FFB
1F0FF8
0F1FFC
031D2E
033FE7
033FE7
033E00
03FF00
03FFC0
01FFC0
01FBE0
00FFE0
00FFE0
00FC30
001E38
00071C
00060E
000C00
000C00
000C00
001800
003800
003000
003000
ENDCHAR
STARTCHAR 203
ENCODING 203
SWIDTH 1728 0
DWIDTH 24 0
BBX 22 34 2 -6
BITMAP
007000
008800
036400
04F300
145340
2CA3A0
2CA3A0
506050
2800A0
10F040
089080
100040
280080
280080
500040
540340
0C03C0
203040
103040
104040
104040
10C840
170740
1800C0
100040
100040
300060
300060
308860
738C30
FF07F8
F00078
078F04
0F8F80
ENDCHAR
STARTCHAR 204
ENCODING 204
SWIDTH 1728 0
DWIDTH 24 0
BBX 24 32 0 -5
BITMAP
000FE0
001FE0
003FE0
00F7E0
01E3E0
01E3E0
01C1E0
01C1E0
01C0E0
07FFF0
0FFFF8
1FFFFC
1FFFFC
3FFFFE
3C3FE6
F83FE7
F0FFE3
E0FFE3
E0FFE1
E0FFE1
C1FFE1
01FFF0
01FFF0
03FFF8
03FFF8
07FFF8
07FFF8
07FFF8
0FFFF8
1FFFF8
003FF8
000FF8
ENDCHAR
STARTCHAR 205
ENCODING 205
SWIDTH 1728 0
DWIDTH 24 0
BBX 21 35 2 -5
BITMAP
000010
000010
04A018
04A030
07E018
000030
07E018
06A030
06A030
07E018
0B5030
1BD818
189C30
3C3E18
3F7F30
3F7F30
7FFF98
7FFFB0
7FFFD8
FFEBD8
FFD8F0
FFB8E0
EF38E0
F67890
F8FC60
A8FC30
D77C00
EFFC00
FFFC00
FFFC00
FFFC00
FFFC00
381C00
3C1F80
3F1F80
ENDCHAR
STARTCHAR 206
ENCODING 206
SWIDTH 1728 0
DWIDTH 24 0
BBX 24 35 0 -5
BITMAP
03F800
03F800
04E4F0
05E7FE
07FFFF
060DFD
0FFEFB
0C0777
0C07AF
0537DF
0737DE
061FDE
0607DE
070FDE
0707DE
0707DE
0607DC
07C7FE
03C7FC
07C7FE
07C72E
0F27CD
0F27CD
1ECF2F
380ECE
F81D07
FC3EC7
FA3E03
F63803
F63803
CA3C03
D43803
283803
00FC07
00F807
ENDCHAR
STARTCHAR 207
ENCODING 207
SWIDTH 1728 0
DWIDTH 24 0
BBX 23 23 0 3
BITMAP
0C0000
0FE000
0FF000
07F800
07F800
001C00
03EF00
FFFFC0
FC0FF0
01FFFE
07FFFE
07FFFE
FE3FFE
F8FFFE
03EFFE
0F1FFE
3C3FFE
F8F1FE
F8E1FE
E1C03E
0F0006
1E0000
180000
ENDCHAR
STARTCHAR 208
ENCODING 208
SWIDTH 1728 0
DWIDTH 24 0
BBX 24 33 0 -5
BITMAP
001C00
003C00
000800
002A00
003C00
100200
100200
D41C00
380005
133707
35DFE7
E6EEF3
341534
341534
003A00
00F700
00ED00
00DA00
003700
00EDC0
00EDC0
001B00
0133C0
01E300
01E300
01E100
002200
002200
00C300
00E300
00E300
03E3E0
07C1F0
ENDCHAR
STARTCHAR 209
ENCODING 209
SWIDTH 1728 0
DWIDTH 24 0
BBX 23 30 0 -5
BITMAP
FFFFC0
3FFFE0
1E3FF0
1E3FF0
0F3FF8
07F1FC
03F0FE
03F03E
03F03E
03F03E
03F03E
FFF03E
3FF03E
1E303E
0F303E
07F03E
03F03E
03F03E
03F03E
03F03E
03F03E
FFF03E
3FF03E
1E30FE
1E30FE
0F31FC
07FFF8
03FFF0
03FFE0
03FFC0
ENDCHAR
STARTCHAR 210
ENCODING 210
SWIDTH 1728 0
DWIDTH 24 0
BBX 23 33 0 -5
BITMAP
FFFF00
3FFFE0
1FFFF0
0F1FF8
061FFC
0231FC
0231FC
03F0FE
FFF03E
3FF03E
1F101E
0E101E
06301E
06301E
03F01E
03F01E
FFF01E
3F101E
1E101E
0E301E
0E301E
07F01E
03F01E
03F01E
FF103E
3E10FE
1E31FC
1E31FC
0FFFFC
07FFF8
03FFF0
03FFE0
03FF00
ENDCHAR
STARTCHAR 211
ENCODING 211
SWIDTH 1728 0
DWIDTH 24 0
BBX 19 29 3 -2
BITMAP
FFF800
7FFF00
3FFF80
3E0FC0
3E07C0
3E07C0
3E01E0
3E01E0
3E01E0
3E49E0
3E01E0
3E01E0
3E01E0
3E01E0
3E01E0
3E01E0
3E61E0
3E01E0
3E01E0
3E01E0
3E07E0
3E0FC0
3FFFC0
3FFF80
7FFF80
3999C0
3999C0
778EE0
E70E60
ENDCHAR
STARTCHAR 212
ENCODING 212
SWIDTH 1728 0
DWIDTH 24 0
BBX 23 32 0 -5
BITMAP
07FFE0
1FFFF0
3FFFF8
FFC1FC
FFC0FC
FFC0FC
F7C03E
E7C03E
E7DB3E
C7DB3E
C7DB3E
C7C03E
C7C03E
07C03E
07C03E
07CE3E
07CE3E
07CE3E
07C03E
07C03E
07C0FC
0FC1FC
1FFFF8
3FFFF8
FFFFF0
0EE33C
0EE33C
0CE1DE
1CE0E6
39E1E6
F3C3CC
F30608
ENDCHAR
STARTCHAR 213
ENCODING 213
SWIDTH 1728 0
DWIDTH 24 0
BBX 23 26 0 -1
BITMAP
FFFF00
1FFFE0
1FFFE0
1FFFE0
0FFFF8
0E00FC
0E003E
0E0C3E
FE0C1E
1E0C1E
1E0C1E
1E0C1E
0E0C1E
0E0C1E
0E0C1E
FE3F1E
1E1E1E
1E1E1E
1E0C1E
0E003E
0E00FE
08FFFC
17FFF8
17FFF8
17FFF8
FFFFC0
ENDCHAR
STARTCHAR 214
ENCODING 214
SWIDTH 1728 0
DWIDTH 24 0
BBX 20 26 3 -5
BITMAP
001000
003800
007E00
00FF00
01FF80
03C7C0
07C7C0
0F81E0
1F00F0
3F00F0
7F81E0
FFC7C0
E1FF80
E1FF80
70FF00
703E00
381800
3E0060
1F00C0
1F81C0
1F81C0
0FC780
07FF00
01FE00
00F800
007000
ENDCHAR
STARTCHAR 215
ENCODING 215
SWIDTH 1728 0
DWIDTH 24 0
BBX 17 30 4 -4
BITMAP
0D5000
12AC00
3FFC00
3FFC00
3FFC00
FFFF00
FFFF00
E00380
E00380
E00000
E00000
E00000
E00000
E32000
EFB000
FEFC00
FC7C00
E03000
E03000
E02000
E00000
E00000
E00380
FFFF00
FFFF00
FFFF00
FFFF00
3FFC00
12AC00
0D5000
ENDCHAR
STARTCHAR 216
ENCODING 216
SWIDTH 1728 0
DWIDTH 24 0
BBX 20 31 4 -5
BITMAP
006000
00F000
01FC00
03FE00
03FE00
0FFF00
1F9F80
3F0FC0
7E03E0
FC01F0
7E03E0
7E03E0
3F0FC0
1F9F80
0FFF00
03FE00
01FDC0
00FFC0
00FFC0
01FF00
03FE00
039C00
0F1C00
0F1C00
0E3C00
0E3C00
0E3C00
0E7C00
0FF000
0FE000
018000
ENDCHAR
STARTCHAR 217
ENCODING 217
SWIDTH 1728 0
DWIDTH 24 0
BBX 20 29 3 -1
BITMAP
000010
000030
01FE70
0FFFF0
1FFFF0
3FFFF0
3FFFF0
3F81F0
7E00F0
780070
780030
780010
F00000
F00000
F00080
F00180
F007C0
F01FC0
F03FE0
F07FF0
F07FF0
7800F0
7E00F0
7F80F0
3FFFE0
3FFFC0
7FFF80
7FFF80
FFFF00
ENDCHAR
STARTCHAR 218
ENCODING 218
SWIDTH 1728 0
DWIDTH 24 0
BBX 19 26 4 -1
BITMAP
0C0000
0C0000
0C0000
0C0000
1C0000
7C1E00
7C1E00
FC1E00
1C0000
1C0000
1C0000
1C0000
1C0000
1C0000
1CF000
1FFC00
1FFC00
1FFC00
1FFC00
1C3C00
1C3C20
1C3E60
1C3E60
1C3FE0
1C3FE0
7F0FC0
ENDCHAR
STARTCHAR 219
ENCODING 219
SWIDTH 1728 0
DWIDTH 24 0
BBX 19 27 4 -1
BITMAP
000C00
0C1E00
0C2D00
0C2C00
0C2C00
1C2C00
7C3C00
7C0F00
FC0D00
1C0D00
1C2D00
1C2D00
1C1E00
1C0C00
1C0000
1CF000
1FFC00
1FFC00
1FFC00
1FFC00
1C3C00
1C3C20
1C3E60
1C3E60
1C3FE0
1C3FE0
7F0FC0
ENDCHAR
STARTCHAR 220
ENCODING 220
SWIDTH 1728 0
DWIDTH 24 0
BBX 21 31 2 -4
BITMAP
004000
078010
0F80F0
7C03E0
7C03C0
7C03C0
FC07C0
3C07C0
3C03E0
1C00E0
1C00E0
1C00E0
1C00E0
3C03E0
3FFFE0
3FFFC0
3F8FC0
3C03C0
1C03E0
1C03E0
1C00E0
1C00E0
3C00E0
3C00E0
7C03E0
7F07F0
7F07F0
FF8FF8
3C03E0
1800C0
100040
ENDCHAR
STARTCHAR 221
ENCODING 221
SWIDTH 1728 0
DWIDTH 24 0
BBX 21 30 2 -5
BITMAP
000040
000080
0003C0
0003C0
000CF0
0003F0
0003C0
000000
000000
000000
000000
000380
000080
000380
000380
002F80
0013A8
0013A8
0003D0
000380
000380
3003A0
F803C0
CC03B0
CC03B0
8F0F00
A71F00
671F00
07FC00
03F000
ENDCHAR
STARTCHAR 222
ENCODING 222
SWIDTH 1728 0
DWIDTH 24 0
BBX 24 28 0 -2
BITMAP
001FFF
001FFF
000FFE
0007FC
0007FC
0003F8
0001D0
000130
0001D0
000130
0001D0
0001D0
000130
0001D0
000130
0001D0
FFE130
FFC1D0
FFC1D0
3F0130
3E01D0
1C0330
1E07F0
0F0FF0
0FFFE0
0FFFE0
07FFC0
03FF00
ENDCHAR
STARTCHAR 223
ENCODING 223
SWIDTH 1728 0
DWIDTH 24 0
BBX 20 29 2 -3
BITMAP
FFC000
6BC000
344000
1BC000
1BC000
0C4000
0B4000
0F4000
0CC000
0BC000
0C4000
0C4000
0F4000
0B4000
0CC000
0CC000
0B4000
0CC010
0CC010
0CC030
0B4070
0CC0F0
0CC7D0
0B7FB0
1CAB50
1CAB50
1B54B0
3FFFF0
3FFFF0
ENDCHAR
STARTCHAR 224
ENCODING 224
SWIDTH 1728 0
DWIDTH 24 0
BBX 23 30 0 -4
BITMAP
FFFFC0
3FFF00
1FFE00
0FFC00
0FFC00
07F800
07F800
07F800
07F800
07F800
07F800
07F800
07F800
07F800
07F800
07F800
07F800
07F802
07F802
07F806
07F80E
07F81E
07F83E
07FFFE
07FFFE
07FFFE
0FFFFE
1FFFFE
3FFFFE
FFFFFE
ENDCHAR
STARTCHAR 225
ENCODING 225
SWIDTH 1728 0
DWIDTH 24 0
BBX 18 21 2 -5
BITMAP
FFFC00
FFFC00
7FFF80
3FFF80
1F07C0
1F03C0
1F03C0
1F03C0
1F03C0
1F0780
1FFF00
1FF800
1C0000
1C0000
1C0000
1C0000
1C0000
1C0000
1C0000
180000
100000
ENDCHAR
STARTCHAR 226
ENCODING 226
SWIDTH 1728 0
DWIDTH 24 0
BBX 20 25 2 -6
BITMAP
FFFF80
7FFFC0
3FFFE0
1FC0E0
1FC0E0
0FC0F0
0FC0F0
0FC0F0
FFC0F0
7FC0F0
3FC0F0
3FC0F0
1FFFE0
0FFFE0
0FBF80
0F8000
0F8000
0F8000
0F8000
0F8000
0F8000
0F0000
0C0000
0C0000
080000
ENDCHAR
STARTCHAR 227
ENCODING 227
SWIDTH 1728 0
DWIDTH 24 0
BBX 22 24 0 -5
BITMAP
FFFFE0
38FFE0
1CFFF0
0EE0FC
0EE0FC
07E0FC
07E0FC
FFE0FC
38E0FC
1CE0FC
0EE0FC
0EE0FC
07FFFC
07FFF0
FFFFE0
38EFE0
1CE000
0EE000
0EE000
07E000
07E000
07E000
07E000
07E000
ENDCHAR
STARTCHAR 228
ENCODING 228
SWIDTH 1728 0
DWIDTH 24 0
BBX 20 30 2 -5
BITMAP
004000
800010
000000
000000
204040
000000
084400
000000
7FFF00
3FFFC0
3FFFC0
5FFFC0
2F8BE0
1F84E0
0F83E0
0F80E0
0F83C0
0F83C0
0FFFA0
0FFC40
0F0380
0F7C00
0F4000
0F4000
0F4000
0F4000
0F4000
0F4000
0C8000
0B0000
ENDCHAR
STARTCHAR 229
ENCODING 229
SWIDTH 1728 0
DWIDTH 24 0
BBX 22 32 0 -6
BITMAP
03E004
07F81C
0E1C38
0C0FF0
0C0FF0
1807E0
100000
000000
000000
FFFFF0
FFFFF8
FFFFF8
1FFFFC
07E0FC
07E0FC
07E0FC
FFE0FC
FFE0FC
FFE0FC
1FE0FC
07E0FC
07FFFC
07FFFC
FFFFF8
FFEFF0
FFEFF0
1FE000
07E000
07E000
07E000
07E000
07E000
ENDCHAR
STARTCHAR 230
ENCODING 230
SWIDTH 1728 0
DWIDTH 24 0
BBX 18 28 2 -5
BITMAP
1FFF00
1FFF00
1FFF00
1FFF00
000000
000000
000000
000000
000000
FFFC00
7FFF80
3FFF80
1F07C0
1F03C0
1F03C0
1F03C0
1F03C0
1F0780
1FFF00
1FF800
1C0000
1C0000
1C0000
1C0000
1C0000
1C0000
180000
100000
ENDCHAR
STARTCHAR 231
ENCODING 231
SWIDTH 1728 0
DWIDTH 24 0
BBX 20 31 2 -6
BITMAP
1FFF00
1FFF00
1FFF00
1FFF00
000000
000000
FFFF80
7FFFC0
3FFFE0
1FC0E0
1FC0E0
0FC0F0
0FC0F0
0FC0F0
FFC0F0
7FC0F0
3FC0F0
3FC0F0
1FFFE0
0FFFE0
0FBF80
0F8000
0F8000
0F8000
0F8000
0F8000
0F8000
0F0000
0C0000
0C0000
080000
ENDCHAR
STARTCHAR 232
ENCODING 232
SWIDTH 1728 0
DWIDTH 24 0
BBX 23 29 0 -3
BITMAP
FFFFC0
FFFFE0
FFFFE0
FFFFF0
FFFFF0
F7FFF0
E7C1F8
C7C0F8
07C07C
07C03C
07C01E
07C01E
07C01E
07FFFE
07FFFE
07FFFE
07FFFE
07C000
07C000
07C000
07C000
07C000
07C000
07C000
0FC000
0FC000
1FC000
3FC000
FFC000
ENDCHAR
STARTCHAR 233
ENCODING 233
SWIDTH 1728 0
DWIDTH 24 0
BBX 19 27 4 -6
BITMAP
000200
000600
000E00
001E00
003E00
01FE00
0FFE00
3FFE00
7FFE00
FE3E00
FC1E00
F00E00
F00E00
F00E00
FC1E00
FE3E00
FFFE00
7FFE00
3FCE00
000E00
000E00
000E20
000E60
000EC0
000F80
000F00
000C00
ENDCHAR
STARTCHAR 234
ENCODING 234
SWIDTH 1728 0
DWIDTH 24 0
BBX 22 33 2 -5
BITMAP
800000
C00000
E00000
F00000
FFFC00
FFFF80
FFFF80
7FFFC0
7FFFE0
7F8FE0
7C03E0
7800F0
F000F0
F000F0
F00070
F00038
F00038
F00038
F00038
F00038
F00038
F00038
F01C38
F01C38
780F70
780FF0
3F03E0
3F03E0
3FFFF0
1FFFF0
0FFF78
03FC18
00000C
ENDCHAR
STARTCHAR 235
ENCODING 235
SWIDTH 1728 0
DWIDTH 24 0
BBX 22 33 2 -5
BITMAP
800010
C00030
E00070
F003F0
FFFFF0
FFFFF0
FFFFF0
7FFFE0
7FFFE0
7F8FE0
7C03E0
7800F0
F000F0
F000F0
F00070
F00038
F00038
F00038
F00038
F00038
F00038
F00038
F01C38
F01C38
780F70
780FF0
3F03E0
3F03E0
3FFFF0
1FFFF0
0FFF78
03FC18
00000C
ENDCHAR
STARTCHAR 236
ENCODING 236
SWIDTH 1728 0
DWIDTH 24 0
BBX 22 29 0 -3
BITMAP
E03C00
39FF00
3FFFC0
1FFFE0
1FFFE0
1F01F0
0F00F0
070030
070030
0700F0
0701F0
0701F0
07FFE0
07FFC0
07FE00
07FE00
073F00
071FC0
071FC0
070FC0
0707E0
0703E0
0601F0
0600F0
060038
060038
060018
04000C
040004
ENDCHAR
STARTCHAR 237
ENCODING 237
SWIDTH 1728 0
DWIDTH 24 0
BBX 23 22 0 -5
BITMAP
00D528
003FF2
003FF2
01FFFC
00FFFC
07F01E
01E01C
0FF000
03FF00
03FF00
1FFFE0
01FFC0
0003F0
1801C0
FC03F0
1FFFC0
1FFFC0
3FFF00
1FFEE0
0BD400
12CB00
040800
ENDCHAR
STARTCHAR 238
ENCODING 238
SWIDTH 1728 0
DWIDTH 24 0
BBX 22 28 2 -3
BITMAP
003F80
00FFC0
03FFE4
07FFE4
07FFE4
0FFFFC
1FC0FC
1F0078
1C0070
1C0060
1C0060
1F0040
0FE000
0FF800
03FF00
00FFC0
000FE0
000FE0
0000E0
3000E0
7800E0
FC03E0
FFFFE0
FFFFC0
FFFFC0
DFFF80
8FFF00
87F800
ENDCHAR
STARTCHAR 239
ENCODING 239
SWIDTH 1728 0
DWIDTH 24 0
BBX 19 21 3 -2
BITMAP
080600
080600
180700
380780
380780
380780
7803C0
7001C0
F001E0
F001E0
F001E0
F001E0
F803E0
F807E0
FE0FE0
7FFFC0
7FFFC0
3FFF80
3FFF80
1FFF00
07F800
ENDCHAR
STARTCHAR 240
ENCODING 240
SWIDTH 1728 0
DWIDTH 24 0
BBX 20 35 4 -5
BITMAP
800000
800000
800000
800000
C00000
C00000
C00000
E00000
E00000
E01FF0
E00FE0
E003C0
F003C0
F003C0
F003C0
F003C0
F003C0
F003C0
F003C0
F003C0
F003C0
F003C0
F003C0
F003C0
F003C0
F003C0
F003C0
F003C0
F003C0
F003C0
FC0FC0
7FFF80
7FFF00
3FFE00
0FFC00
ENDCHAR
STARTCHAR 241
ENCODING 241
SWIDTH 1728 0
DWIDTH 24 0
BBX 18 35 4 -5
BITMAP
800040
800040
800040
800040
C000C0
C000C0
C000C0
E001C0
E001C0
E001C0
E001C0
F003C0
F003C0
F003C0
F003C0
F003C0
F003C0
F003C0
F333C0
F333C0
F333C0
F003C0
F003C0
F003C0
F003C0
F003C0
F003C0
F003C0
F003C0
F003C0
F003C0
7C0F80
3FFF00
1FFE00
0FFC00
ENDCHAR
STARTCHAR 242
ENCODING 242
SWIDTH 1728 0
DWIDTH 24 0
BBX 21 35 2 -5
BITMAP
800008
800008
800008
C00018
CF0798
C78F18
E38C38
E08838
E08838
F00078
F05078
F07078
F870F8
F820F8
F800F8
F800F8
F800F8
F800F8
F800F8
F800F8
F800F8
F800F8
F800F8
F800F8
F800F8
F800F8
FC03F8
7C03F0
7F07F0
7F07F0
3F8FE0
1FDFE0
0FFFC0
07FF80
03FF00
ENDCHAR
STARTCHAR 243
ENCODING 243
SWIDTH 1728 0
DWIDTH 24 0
BBX 24 21 0 -4
BITMAP
3C001E
3E001E
3E001E
1E003C
0E0038
DF00FD
0700F0
2FC1FA
03C1E0
03C1E0
17E3F4
01E3C0
0BF7E8
00FF00
05FFD0
003E00
003E00
02FF20
001C00
003E00
000800
ENDCHAR
STARTCHAR 244
ENCODING 244
SWIDTH 1728 0
DWIDTH 24 0
BBX 24 29 0 -4
BITMAP
1B0000
0E0330
0401E0
0401E0
0000C0
000000
003600
001C00
3C081E
3E001E
3E001E
1E003C
0E0038
DF00FD
0700F0
2FC1FA
03C1E0
03C1E0
17E3F4
01E3C0
0BF7E8
00FF00
05FFD0
003E00
003E00
02FF20
001C00
003E00
000800
ENDCHAR
STARTCHAR 245
ENCODING 245
SWIDTH 1728 0
DWIDTH 24 0
BBX 24 30 0 -4
BITMAP
03FFE0
03FFE0
03FFE0
03FFE0
03FFE0
000000
000000
000000
000000
3C001E
3E001E
3E001E
1E003C
0E0038
DF00FD
0700F0
2FC1FA
03C1E0
03C1E0
17E3F4
01E3C0
0BF7E8
00FF00
05FFD0
003E00
003E00
02FF20
001C00
003E00
000800
ENDCHAR
STARTCHAR 246
ENCODING 246
SWIDTH 1728 0
DWIDTH 24 0
BBX 24 21 0 0
BITMAP
120000
290000
290000
2900FF
FFC0FF
3F003E
3F003E
1E001C
0E001C
0E001C
0E0018
060C18
071E38
071E38
071E38
033F30
03F3F0
01F3E0
01E1E0
00C0C0
00C0C0
ENDCHAR
STARTCHAR 247
ENCODING 247
SWIDTH 1728 0
DWIDTH 24 0
BBX 21 33 2 -5
BITMAP
800000
800000
C00000
C00000
C00000
C00000
C00000
E00000
E00000
E00008
E00000
F00008
F00000
F00000
F00028
F00010
F00068
F00050
F80028
F80050
F80050
787048
78F868
7BFC58
7FFF78
7FDFF8
7F8FF0
7F8FF0
7F07F0
7C03F0
7800F0
700070
600070
ENDCHAR
STARTCHAR 248
ENCODING 248
SWIDTH 1728 0
DWIDTH 24 0
BBX 21 32 2 -5
BITMAP
800F08
800F08
800008
878008
878008
878008
C01C18
C01C18
E00038
E00038
E00038
E00038
E00038
E00038
F00078
F00078
F00078
F00070
F02070
F02070
707070
70F870
73FC70
77FF70
7FDFF0
7F8FF0
7F8FF0
3F07E0
3C03E0
3800E0
300060
200020
ENDCHAR
STARTCHAR 249
ENCODING 249
SWIDTH 1728 0
DWIDTH 24 0
BBX 21 35 2 -5
BITMAP
800008
800008
800008
800008
800008
C00018
C00018
C00018
C00018
E00038
E00038
E00038
F02078
F02078
F02078
F02078
F02078
F07078
F07078
F07078
F07078
F07078
F07078
F0F878
F0F878
F3FC78
F7DF78
FF8FF8
FF07F8
FF07F8
FC03F8
F800F8
F800F8
F00078
E00038
ENDCHAR
STARTCHAR 250
ENCODING 250
SWIDTH 1728 0
DWIDTH 24 0
BBX 21 18 2 0
BITMAP
1FFFF8
3FFFF0
7FFFE0
7FFFE0
F007C0
E00F80
C01F00
803C00
007800
00F000
00F000
03E000
07C008
0F8018
1FFFF8
3FFFF0
7FFFE0
7FFFE0
ENDCHAR
STARTCHAR 251
ENCODING 251
SWIDTH 1728 0
DWIDTH 24 0
BBX 17 26 4 -1
BITMAP
FFFF80
FFFF80
FFFF80
FFFF80
E00380
E00380
C00380
C00F80
001F00
003E00
003E00
007C00
00F000
01E000
03C000
0F8000
1F0000
1F0000
3E0180
7C0180
FC0380
FC0380
FFFF80
FFFF80
FFFF80
FFFF80
ENDCHAR
STARTCHAR 252
ENCODING 252
SWIDTH 1728 0
DWIDTH 24 0
BBX 24 31 0 -6
BITMAP
07FFFC
07FFFC
07FFFC
07FFFC
07001C
07001C
FFF81C
7FF03C
3FE078
1FC0F0
0F81E0
0703C0
020780
000F00
001E00
003C00
007800
00F800
01F000
03E000
07E000
07E000
07FFFC
07FFFC
07FFFC
07FFFC
00000C
00000C
00003F
00001E
00000C
ENDCHAR
STARTCHAR 253
ENCODING 253
SWIDTH 1728 0
DWIDTH 24 0
BBX 17 30 4 -4
BITMAP
FFFF80
F19C80
E33180
CE6380
CE6380
9CCF80
FFFF80
000F00
001E80
003D80
007380
007380
00EF00
01DE00
03BC00
0F7000
1EE000
3DC000
3DC000
738000
EF0000
DE0000
BC0000
7FFF80
F19C80
F19C80
E33180
CE6380
9CCF80
FFFF80
ENDCHAR
STARTCHAR 254
ENCODING 254
SWIDTH 1728 0
DWIDTH 24 0
BBX 24 30 0 -4
BITMAP
FFFFFE
7FFFFE
3FFFFE
1FFFFE
0FFFFE
07FFFE
03FFFE
0000FE
0001FE
0003FC
0007F8
000FF8
001FF0
003FE0
007FC0
00FF80
01FF00
03FE00
07FC00
0FF800
1FF000
3FE000
3FC000
3FFFC0
3FFFE0
3FFFF0
3FFFF8
3FFFFC
3FFFFE
3FFFFF
ENDCHAR
STARTCHAR 255
ENCODING 255
SWIDTH 1728 0
DWIDTH 24 0
BBX 21 29 2 -5
BITMAP
0003C0
7807E0
7C0FE0
FF1FF0
FFFFF0
E7F870
C3E070
0000E0
0003E0
0007E0
0007C0
000F80
001F00
003C00
003800
007800
00F800
01F000
07E000
0F8000
1F0000
3C0000
781C00
783E00
F8FF08
FFFF98
FFFFF0
7F80E0
380000
ENDCHAR
ENDFONT
